<svg width="11" height="6" viewBox="0 0 11 6" fill="none" xmlns="http://www.w3.org/2000/svg">
<path d="M8.65782 1.62344L5.49984 3.92065L2.34186 1.62344C2.28544 1.58232 2.20969 1.55929 2.13082 1.55929C2.05195 1.55929 1.97621 1.58232 1.91979 1.62344C1.89247 1.64342 1.87076 1.66726 1.85594 1.69358C1.84113 1.71989 1.8335 1.74814 1.8335 1.77669C1.8335 1.80523 1.84113 1.83348 1.85594 1.8598C1.87076 1.88611 1.89247 1.90995 1.91979 1.92993L5.27932 4.37424C5.33832 4.41716 5.41745 4.44118 5.49984 4.44118C5.58223 4.44118 5.66136 4.41716 5.72035 4.37424L9.07989 1.9304C9.10741 1.91041 9.12927 1.88651 9.14421 1.86011C9.15914 1.83371 9.16683 1.80534 9.16683 1.77669C9.16683 1.74803 9.15914 1.71967 9.14421 1.69326C9.12927 1.66686 9.10741 1.64296 9.07989 1.62297C9.02347 1.58185 8.94773 1.55882 8.86885 1.55882C8.78998 1.55882 8.71424 1.58232 8.65782 1.62344Z" fill="#625E5E"/>
</svg>
