<svg width="20" height="20" viewBox="0 0 20 20" fill="none" xmlns="http://www.w3.org/2000/svg">
<path d="M16.4196 10L9.34289 2.7275C9.28463 2.6689 9.23857 2.59932 9.20737 2.52279C9.17618 2.44626 9.16047 2.36431 9.16115 2.28167C9.16184 2.19904 9.17891 2.11735 9.21137 2.04136C9.24383 1.96536 9.29105 1.89655 9.35027 1.83892C9.4095 1.78129 9.47957 1.73598 9.55643 1.70561C9.63329 1.67523 9.7154 1.66041 9.79803 1.66198C9.88066 1.66355 9.96215 1.6815 10.0378 1.71477C10.1134 1.74805 10.1817 1.79599 10.2387 1.85584L17.7387 9.56417C17.8522 9.68085 17.9158 9.83722 17.9158 10C17.9158 10.1628 17.8522 10.3192 17.7387 10.4358L10.2387 18.1442C10.1817 18.204 10.1134 18.252 10.0378 18.2852C9.96215 18.3185 9.88066 18.3365 9.79803 18.338C9.7154 18.3396 9.63329 18.3248 9.55643 18.2944C9.47957 18.264 9.4095 18.2187 9.35027 18.1611C9.29105 18.1035 9.24383 18.0347 9.21137 17.9587C9.17891 17.8827 9.16184 17.801 9.16115 17.7183C9.16047 17.6357 9.17618 17.5537 9.20737 17.4772C9.23857 17.4007 9.28463 17.3311 9.34289 17.2725L16.4196 10Z" fill="#625E5E"/>
</svg>
