<svg width="204" height="36" viewBox="0 0 204 36" fill="none" xmlns="http://www.w3.org/2000/svg">
<path d="M7.03049 13.8601V13.8795C7.03074 14.2585 6.97064 14.6347 6.85284 14.9915L6.85976 14.9684C6.74524 15.3161 6.55068 15.6263 6.29451 15.8697L6.2922 15.8716C6.04937 16.1085 5.72637 16.2529 5.37222 16.2529H5.34453H5.34569C4.87845 16.25 4.43099 16.0481 4.09982 15.6909C3.73803 15.3311 3.45657 14.8867 3.27674 14.3914L3.26924 14.3677C3.09495 13.8997 3.00319 13.4004 2.99873 12.8957V12.8738C2.99873 12.4838 3.0616 12.1093 3.17638 11.7618L3.16946 11.7849C3.28398 11.4372 3.47854 11.127 3.73471 10.8836L3.73702 10.8817C3.99768 10.6276 4.3382 10.4912 4.68872 10.5004H4.68699C5.15437 10.5026 5.60208 10.7045 5.93286 11.0624C6.29103 11.4222 6.57013 11.8646 6.74959 12.3569L6.75709 12.3806C6.92378 12.8182 7.02241 13.3263 7.0276 13.8583V13.8601H7.03049ZM3.94755 18.5781L3.94812 18.6306C3.94882 19.1006 3.81479 19.5593 3.56456 19.9432L3.56917 19.9357C3.45507 20.1138 3.30289 20.2594 3.12561 20.36C2.94834 20.4606 2.75124 20.5131 2.55114 20.5133L2.49404 20.512H2.49692C2.02416 20.5064 1.56974 20.3129 1.21991 19.9682L1.22164 19.9701C0.849481 19.6246 0.548466 19.1983 0.338112 18.7187C0.127759 18.2391 0.0127616 17.7169 0.00057679 17.1861V17.1811L0 17.1298C0 16.6391 0.14189 16.1841 0.383565 15.8109L0.378951 15.8184C0.497668 15.6304 0.658732 15.4783 0.846882 15.3765C1.03503 15.2748 1.24403 15.2268 1.45409 15.2371H1.4512C1.92397 15.2428 2.37838 15.4363 2.72821 15.7809L2.72648 15.7791C3.09922 16.1266 3.4005 16.555 3.61084 17.0366C3.82117 17.5182 3.93588 18.0423 3.94755 18.575V18.5793V18.5781ZM7.50115 18.3143C8.34325 18.3641 9.14974 18.6988 9.80715 19.2713L9.79908 19.2644C10.6038 19.8837 11.2972 20.6574 11.845 21.5471L11.8634 21.579C12.3572 22.2978 12.6457 23.1577 12.6934 24.0523L12.694 24.0648L12.6951 24.1192C12.6951 24.3718 12.638 24.6105 12.5371 24.8199L12.5406 24.8118C12.4437 25.0038 12.2925 25.157 12.1091 25.2487L12.1034 25.2512C11.9355 25.3381 11.74 25.4062 11.5358 25.4444L11.5219 25.4462C11.309 25.4826 11.0938 25.5006 10.8783 25.5H10.835H10.8373C10.243 25.4574 9.65995 25.3038 9.11385 25.0462L9.14731 25.0606C8.63158 24.8169 8.08175 24.6688 7.52076 24.6224L7.50288 24.6212C6.86668 24.6724 6.2772 24.8274 5.72925 25.0706L5.7679 25.0556C5.19652 25.3043 4.59167 25.4508 3.97696 25.4894L3.96081 25.49C2.85876 25.4908 2.30774 25.016 2.30774 24.0655C2.33271 23.3995 2.50947 22.7505 2.82223 22.1765L2.81243 22.1953C3.14987 21.5076 3.57382 20.874 4.07213 20.3126L4.06983 20.3151C4.55689 19.7638 5.11388 19.2905 5.72406 18.9094L5.75982 18.8887C6.28095 18.5364 6.87809 18.3379 7.49192 18.3131H7.49884L7.50115 18.3143ZM9.65546 16.2535H9.62893C9.28878 16.2539 8.96058 16.1176 8.70779 15.871L8.70895 15.8722C8.45481 15.6324 8.26109 15.3266 8.146 14.9834L8.14139 14.9684C8.02695 14.6188 7.969 14.2504 7.97008 13.8795V13.8589V13.8601C7.97527 13.3257 8.0739 12.8182 8.24982 12.3531L8.24059 12.3806C8.41931 11.88 8.70054 11.4299 9.0631 11.0642L9.0654 11.0624C9.39627 10.7052 9.84365 10.5035 10.3107 10.5011H10.3378C10.692 10.5011 11.015 10.6461 11.2589 10.8836L11.2578 10.8824C11.5104 11.1218 11.7054 11.4255 11.8207 11.7712L11.8253 11.7862C11.9355 12.1125 11.999 12.4894 11.999 12.8819V12.8944C11.994 13.4097 11.899 13.9187 11.7192 14.3958L11.7284 14.3683C11.5496 14.8716 11.2662 15.3236 10.9002 15.6891L10.8979 15.6916C10.5665 16.0479 10.1194 16.249 9.65258 16.2516L9.65546 16.2535ZM13.5488 15.2384L13.6019 15.2371C14.0235 15.2371 14.3955 15.4659 14.6182 15.8153L14.621 15.8197C14.8688 16.2044 15.0012 16.6625 15 17.1317L14.9994 17.1855V17.183C14.9881 17.7135 14.8739 18.2355 14.6643 18.7151C14.4548 19.1947 14.1545 19.6212 13.783 19.967L13.7784 19.9713C13.4291 20.3147 12.9758 20.5075 12.5042 20.5133H12.5031C12.2948 20.5234 12.0875 20.4763 11.9005 20.3763C11.7136 20.2763 11.553 20.1267 11.4337 19.9413L11.4308 19.937C11.1732 19.5394 11.0405 19.0625 11.0524 18.5768V18.5793C11.0635 18.0469 11.1775 17.523 11.387 17.0413C11.5965 16.5596 11.897 16.1309 12.2689 15.7828L12.2735 15.7784C12.6224 15.4361 13.0747 15.2439 13.5453 15.2378H13.5465L13.5488 15.2384Z" fill="#625E5E"/>
<path d="M18.17 8.76C18.63 8.78 19.22 8.8 19.94 8.82C20.68 8.84 21.41 8.85 22.13 8.85C23.09 8.85 24 8.84 24.86 8.82C25.74 8.8 26.36 8.79 26.72 8.79C29.26 8.79 31.16 9.34 32.42 10.44C33.68 11.54 34.31 12.96 34.31 14.7C34.31 15.42 34.18 16.18 33.92 16.98C33.68 17.76 33.25 18.49 32.63 19.17C32.01 19.83 31.17 20.37 30.11 20.79C29.05 21.21 27.7 21.42 26.06 21.42H23.12V20.82H25.76C27.1 20.82 28.12 20.55 28.82 20.01C29.54 19.47 30.02 18.76 30.26 17.88C30.52 17 30.65 16.05 30.65 15.03C30.65 13.13 30.31 11.71 29.63 10.77C28.95 9.83 27.77 9.36 26.09 9.36C25.23 9.36 24.66 9.53 24.38 9.87C24.12 10.21 23.99 10.9 23.99 11.94V26.76C23.99 27.5 24.07 28.06 24.23 28.44C24.39 28.8 24.69 29.04 25.13 29.16C25.57 29.28 26.22 29.35 27.08 29.37V30C26.54 29.96 25.84 29.94 24.98 29.94C24.12 29.92 23.23 29.91 22.31 29.91C21.51 29.91 20.74 29.92 20 29.94C19.28 29.94 18.67 29.96 18.17 30V29.4C18.85 29.36 19.36 29.28 19.7 29.16C20.04 29.04 20.26 28.8 20.36 28.44C20.48 28.08 20.54 27.54 20.54 26.82V11.94C20.54 11.2 20.48 10.66 20.36 10.32C20.26 9.96 20.03 9.72 19.67 9.6C19.33 9.46 18.83 9.38 18.17 9.36V8.76ZM39.8818 30.21C39.0418 30.21 38.3218 30.05 37.7218 29.73C37.1218 29.41 36.6718 28.97 36.3718 28.41C36.0718 27.85 35.9218 27.21 35.9218 26.49C35.9218 25.61 36.1218 24.9 36.5218 24.36C36.9218 23.8 37.4318 23.35 38.0518 23.01C38.6918 22.67 39.3618 22.39 40.0618 22.17C40.7818 21.93 41.4518 21.71 42.0718 21.51C42.7118 21.29 43.2318 21.04 43.6318 20.76C44.0518 20.48 44.2618 20.11 44.2618 19.65V17.61C44.2618 16.89 44.1418 16.32 43.9018 15.9C43.6818 15.46 43.3718 15.15 42.9718 14.97C42.5918 14.79 42.1318 14.7 41.5918 14.7C41.1318 14.7 40.6418 14.77 40.1218 14.91C39.6018 15.03 39.1918 15.28 38.8918 15.66C39.3318 15.78 39.6918 16.02 39.9718 16.38C40.2718 16.72 40.4218 17.15 40.4218 17.67C40.4218 18.23 40.2318 18.67 39.8518 18.99C39.4918 19.31 39.0318 19.47 38.4718 19.47C37.8518 19.47 37.3918 19.28 37.0918 18.9C36.7918 18.5 36.6418 18.04 36.6418 17.52C36.6418 16.98 36.7718 16.54 37.0318 16.2C37.3118 15.86 37.6718 15.54 38.1118 15.24C38.5918 14.92 39.2018 14.65 39.9418 14.43C40.7018 14.21 41.5418 14.1 42.4618 14.1C43.3218 14.1 44.0618 14.2 44.6818 14.4C45.3218 14.58 45.8518 14.88 46.2718 15.3C46.7718 15.76 47.1018 16.34 47.2618 17.04C47.4218 17.72 47.5018 18.55 47.5018 19.53V27.81C47.5018 28.31 47.5618 28.67 47.6818 28.89C47.8218 29.09 48.0418 29.19 48.3418 29.19C48.5418 29.19 48.7318 29.14 48.9118 29.04C49.1118 28.94 49.3418 28.79 49.6018 28.59L49.9018 29.1C49.4818 29.44 49.0518 29.71 48.6118 29.91C48.1918 30.11 47.6518 30.21 46.9918 30.21C46.3518 30.21 45.8318 30.11 45.4318 29.91C45.0318 29.71 44.7318 29.42 44.5318 29.04C44.3518 28.66 44.2618 28.19 44.2618 27.63C43.7418 28.47 43.1218 29.11 42.4018 29.55C41.6818 29.99 40.8418 30.21 39.8818 30.21ZM41.3218 28.77C41.8818 28.77 42.4018 28.61 42.8818 28.29C43.3818 27.97 43.8418 27.49 44.2618 26.85V20.88C44.0418 21.2 43.7218 21.48 43.3018 21.72C42.8818 21.94 42.4318 22.17 41.9518 22.41C41.4718 22.65 41.0118 22.93 40.5718 23.25C40.1518 23.55 39.8018 23.94 39.5218 24.42C39.2418 24.9 39.1018 25.51 39.1018 26.25C39.1018 27.03 39.3018 27.65 39.7018 28.11C40.1018 28.55 40.6418 28.77 41.3218 28.77ZM56.8032 14.52V15.15C56.3232 15.15 55.8932 15.19 55.5132 15.27C55.1532 15.33 54.9132 15.51 54.7932 15.81C54.6932 16.11 54.7732 16.64 55.0332 17.4L58.0632 26.34L57.7932 26.46L61.9032 14.43L62.5032 14.7L57.3132 30.12C57.1532 30.12 56.9932 30.12 56.8332 30.12C56.6732 30.12 56.5032 30.12 56.3232 30.12L51.4632 16.83C51.1432 16.03 50.8232 15.55 50.5032 15.39C50.2032 15.23 49.9432 15.15 49.7232 15.15V14.52C50.2032 14.58 50.6932 14.63 51.1932 14.67C51.7132 14.69 52.2832 14.7 52.9032 14.7C53.5232 14.7 54.1732 14.68 54.8532 14.64C55.5532 14.6 56.2032 14.56 56.8032 14.52ZM73.0032 14.52V15.12C72.6232 15.18 72.2632 15.37 71.9232 15.69C71.5832 16.01 71.2832 16.58 71.0232 17.4L66.7932 30.12C66.6332 30.12 66.4632 30.12 66.2832 30.12C66.1232 30.12 65.9632 30.12 65.8032 30.12L61.1532 18.09L61.9032 14.43C62.1032 14.45 62.2932 14.46 62.4732 14.46C62.6732 14.44 62.8732 14.43 63.0732 14.43L67.5732 26.73L67.3032 26.76L69.9432 18.6C70.2032 17.78 70.3032 17.13 70.2432 16.65C70.1832 16.17 69.9732 15.81 69.6132 15.57C69.2532 15.33 68.7132 15.18 67.9932 15.12V14.52C68.3532 14.54 68.6732 14.56 68.9532 14.58C69.2532 14.58 69.5432 14.59 69.8232 14.61C70.1232 14.61 70.4232 14.61 70.7232 14.61C71.1632 14.61 71.5732 14.6 71.9532 14.58C72.3532 14.56 72.7032 14.54 73.0032 14.52ZM79.2005 14.1C80.0005 14.1 80.6905 14.23 81.2705 14.49C81.8705 14.73 82.3005 14.95 82.5605 15.15C83.2205 15.67 83.6305 15.33 83.7905 14.13H84.4505C84.4105 14.69 84.3805 15.37 84.3605 16.17C84.3405 16.95 84.3305 17.99 84.3305 19.29H83.6705C83.5505 18.55 83.3405 17.83 83.0405 17.13C82.7605 16.43 82.3405 15.85 81.7805 15.39C81.2405 14.93 80.5305 14.7 79.6505 14.7C78.9905 14.7 78.4405 14.89 78.0005 15.27C77.5605 15.63 77.3405 16.17 77.3405 16.89C77.3405 17.49 77.5205 18.01 77.8805 18.45C78.2405 18.89 78.7005 19.3 79.2605 19.68C79.8405 20.06 80.4605 20.47 81.1205 20.91C81.8605 21.41 82.5205 21.91 83.1005 22.41C83.7005 22.89 84.1705 23.43 84.5105 24.03C84.8705 24.63 85.0505 25.33 85.0505 26.13C85.0505 27.05 84.8005 27.83 84.3005 28.47C83.8205 29.11 83.1805 29.6 82.3805 29.94C81.5805 30.26 80.7005 30.42 79.7405 30.42C79.2605 30.42 78.8105 30.37 78.3905 30.27C77.9705 30.19 77.5805 30.08 77.2205 29.94C77.0005 29.82 76.7805 29.7 76.5605 29.58C76.3605 29.44 76.1605 29.31 75.9605 29.19C75.7605 29.05 75.5805 29.07 75.4205 29.25C75.2605 29.43 75.1405 29.75 75.0605 30.21H74.4005C74.4405 29.57 74.4705 28.79 74.4905 27.87C74.5105 26.95 74.5205 25.73 74.5205 24.21H75.1805C75.3205 25.31 75.5305 26.28 75.8105 27.12C76.0905 27.96 76.5005 28.62 77.0405 29.1C77.6005 29.56 78.3605 29.79 79.3205 29.79C79.7005 29.79 80.0805 29.71 80.4605 29.55C80.8405 29.37 81.1505 29.09 81.3905 28.71C81.6505 28.33 81.7805 27.82 81.7805 27.18C81.7805 26.3 81.4705 25.58 80.8505 25.02C80.2505 24.44 79.4705 23.83 78.5105 23.19C77.8305 22.71 77.1805 22.24 76.5605 21.78C75.9605 21.3 75.4705 20.77 75.0905 20.19C74.7105 19.59 74.5205 18.88 74.5205 18.06C74.5205 17.16 74.7305 16.42 75.1505 15.84C75.5905 15.26 76.1705 14.83 76.8905 14.55C77.6105 14.25 78.3805 14.1 79.2005 14.1ZM87.2813 8.76C87.7413 8.78 88.3313 8.8 89.0513 8.82C89.7913 8.84 90.5213 8.85 91.2413 8.85C92.2013 8.85 93.1113 8.84 93.9713 8.82C94.8513 8.8 95.4713 8.79 95.8313 8.79C98.3713 8.79 100.271 9.34 101.531 10.44C102.791 11.54 103.421 12.96 103.421 14.7C103.421 15.42 103.291 16.18 103.031 16.98C102.791 17.76 102.361 18.49 101.741 19.17C101.121 19.83 100.281 20.37 99.2213 20.79C98.1613 21.21 96.8113 21.42 95.1713 21.42H92.2313V20.82H94.8713C96.2113 20.82 97.2313 20.55 97.9313 20.01C98.6513 19.47 99.1313 18.76 99.3713 17.88C99.6313 17 99.7613 16.05 99.7613 15.03C99.7613 13.13 99.4213 11.71 98.7413 10.77C98.0613 9.83 96.8813 9.36 95.2013 9.36C94.3413 9.36 93.7713 9.53 93.4913 9.87C93.2313 10.21 93.1013 10.9 93.1013 11.94V26.76C93.1013 27.5 93.1813 28.06 93.3413 28.44C93.5013 28.8 93.8013 29.04 94.2413 29.16C94.6813 29.28 95.3313 29.35 96.1913 29.37V30C95.6513 29.96 94.9513 29.94 94.0913 29.94C93.2313 29.92 92.3413 29.91 91.4213 29.91C90.6213 29.91 89.8513 29.92 89.1113 29.94C88.3913 29.94 87.7813 29.96 87.2813 30V29.4C87.9613 29.36 88.4713 29.28 88.8113 29.16C89.1513 29.04 89.3713 28.8 89.4713 28.44C89.5913 28.08 89.6513 27.54 89.6513 26.82V11.94C89.6513 11.2 89.5913 10.66 89.4713 10.32C89.3713 9.96 89.1413 9.72 88.7813 9.6C88.4413 9.46 87.9413 9.38 87.2813 9.36V8.76ZM108.993 30.21C108.153 30.21 107.433 30.05 106.833 29.73C106.233 29.41 105.783 28.97 105.483 28.41C105.183 27.85 105.033 27.21 105.033 26.49C105.033 25.61 105.233 24.9 105.633 24.36C106.033 23.8 106.543 23.35 107.163 23.01C107.803 22.67 108.473 22.39 109.173 22.17C109.893 21.93 110.563 21.71 111.183 21.51C111.823 21.29 112.343 21.04 112.743 20.76C113.163 20.48 113.373 20.11 113.373 19.65V17.61C113.373 16.89 113.253 16.32 113.013 15.9C112.793 15.46 112.483 15.15 112.083 14.97C111.703 14.79 111.243 14.7 110.703 14.7C110.243 14.7 109.753 14.77 109.233 14.91C108.713 15.03 108.303 15.28 108.003 15.66C108.443 15.78 108.803 16.02 109.083 16.38C109.383 16.72 109.533 17.15 109.533 17.67C109.533 18.23 109.343 18.67 108.963 18.99C108.603 19.31 108.143 19.47 107.583 19.47C106.963 19.47 106.503 19.28 106.203 18.9C105.903 18.5 105.753 18.04 105.753 17.52C105.753 16.98 105.883 16.54 106.143 16.2C106.423 15.86 106.783 15.54 107.223 15.24C107.703 14.92 108.313 14.65 109.053 14.43C109.813 14.21 110.653 14.1 111.573 14.1C112.433 14.1 113.173 14.2 113.793 14.4C114.433 14.58 114.963 14.88 115.383 15.3C115.883 15.76 116.213 16.34 116.373 17.04C116.533 17.72 116.613 18.55 116.613 19.53V27.81C116.613 28.31 116.673 28.67 116.793 28.89C116.933 29.09 117.153 29.19 117.453 29.19C117.653 29.19 117.843 29.14 118.023 29.04C118.223 28.94 118.453 28.79 118.713 28.59L119.013 29.1C118.593 29.44 118.163 29.71 117.723 29.91C117.303 30.11 116.763 30.21 116.103 30.21C115.463 30.21 114.943 30.11 114.543 29.91C114.143 29.71 113.843 29.42 113.643 29.04C113.463 28.66 113.373 28.19 113.373 27.63C112.853 28.47 112.233 29.11 111.513 29.55C110.793 29.99 109.953 30.21 108.993 30.21ZM110.433 28.77C110.993 28.77 111.513 28.61 111.993 28.29C112.493 27.97 112.953 27.49 113.373 26.85V20.88C113.153 21.2 112.833 21.48 112.413 21.72C111.993 21.94 111.543 22.17 111.063 22.41C110.583 22.65 110.123 22.93 109.683 23.25C109.263 23.55 108.913 23.94 108.633 24.42C108.353 24.9 108.213 25.51 108.213 26.25C108.213 27.03 108.413 27.65 108.813 28.11C109.213 28.55 109.753 28.77 110.433 28.77ZM129.57 14.1C130.15 14.1 130.64 14.22 131.04 14.46C131.46 14.7 131.77 15.01 131.97 15.39C132.19 15.75 132.3 16.16 132.3 16.62C132.3 17.2 132.12 17.7 131.76 18.12C131.42 18.52 130.96 18.72 130.38 18.72C129.88 18.72 129.45 18.57 129.09 18.27C128.75 17.97 128.58 17.56 128.58 17.04C128.58 16.6 128.69 16.23 128.91 15.93C129.15 15.61 129.42 15.36 129.72 15.18C129.52 15.02 129.28 14.95 129 14.97C128.46 14.99 127.96 15.17 127.5 15.51C127.04 15.83 126.65 16.25 126.33 16.77C126.01 17.27 125.76 17.81 125.58 18.39C125.4 18.97 125.31 19.51 125.31 20.01V26.91C125.31 27.89 125.58 28.55 126.12 28.89C126.66 29.21 127.41 29.37 128.37 29.37V30C127.91 29.98 127.25 29.96 126.39 29.94C125.55 29.9 124.66 29.88 123.72 29.88C123 29.88 122.28 29.9 121.56 29.94C120.84 29.96 120.29 29.98 119.91 30V29.37C120.69 29.37 121.24 29.22 121.56 28.92C121.9 28.62 122.07 28.05 122.07 27.21V17.79C122.07 16.89 121.92 16.23 121.62 15.81C121.32 15.37 120.75 15.15 119.91 15.15V14.52C120.55 14.58 121.17 14.61 121.77 14.61C122.45 14.61 123.08 14.58 123.66 14.52C124.26 14.44 124.81 14.33 125.31 14.19V17.64C125.55 17.06 125.87 16.5 126.27 15.96C126.67 15.42 127.15 14.98 127.71 14.64C128.27 14.28 128.89 14.1 129.57 14.1ZM137.704 30.21C136.864 30.21 136.144 30.05 135.544 29.73C134.944 29.41 134.494 28.97 134.194 28.41C133.894 27.85 133.744 27.21 133.744 26.49C133.744 25.61 133.944 24.9 134.344 24.36C134.744 23.8 135.254 23.35 135.874 23.01C136.514 22.67 137.184 22.39 137.884 22.17C138.604 21.93 139.274 21.71 139.894 21.51C140.534 21.29 141.054 21.04 141.454 20.76C141.874 20.48 142.084 20.11 142.084 19.65V17.61C142.084 16.89 141.964 16.32 141.724 15.9C141.504 15.46 141.194 15.15 140.794 14.97C140.414 14.79 139.954 14.7 139.414 14.7C138.954 14.7 138.464 14.77 137.944 14.91C137.424 15.03 137.014 15.28 136.714 15.66C137.154 15.78 137.514 16.02 137.794 16.38C138.094 16.72 138.244 17.15 138.244 17.67C138.244 18.23 138.054 18.67 137.674 18.99C137.314 19.31 136.854 19.47 136.294 19.47C135.674 19.47 135.214 19.28 134.914 18.9C134.614 18.5 134.464 18.04 134.464 17.52C134.464 16.98 134.594 16.54 134.854 16.2C135.134 15.86 135.494 15.54 135.934 15.24C136.414 14.92 137.024 14.65 137.764 14.43C138.524 14.21 139.364 14.1 140.284 14.1C141.144 14.1 141.884 14.2 142.504 14.4C143.144 14.58 143.674 14.88 144.094 15.3C144.594 15.76 144.924 16.34 145.084 17.04C145.244 17.72 145.324 18.55 145.324 19.53V27.81C145.324 28.31 145.384 28.67 145.504 28.89C145.644 29.09 145.864 29.19 146.164 29.19C146.364 29.19 146.554 29.14 146.734 29.04C146.934 28.94 147.164 28.79 147.424 28.59L147.724 29.1C147.304 29.44 146.874 29.71 146.434 29.91C146.014 30.11 145.474 30.21 144.814 30.21C144.174 30.21 143.654 30.11 143.254 29.91C142.854 29.71 142.554 29.42 142.354 29.04C142.174 28.66 142.084 28.19 142.084 27.63C141.564 28.47 140.944 29.11 140.224 29.55C139.504 29.99 138.664 30.21 137.704 30.21ZM139.144 28.77C139.704 28.77 140.224 28.61 140.704 28.29C141.204 27.97 141.664 27.49 142.084 26.85V20.88C141.864 21.2 141.544 21.48 141.124 21.72C140.704 21.94 140.254 22.17 139.774 22.41C139.294 22.65 138.834 22.93 138.394 23.25C137.974 23.55 137.624 23.94 137.344 24.42C137.064 24.9 136.924 25.51 136.924 26.25C136.924 27.03 137.124 27.65 137.524 28.11C137.924 28.55 138.464 28.77 139.144 28.77ZM162.661 6.48V26.73C162.661 27.63 162.811 28.3 163.111 28.74C163.431 29.16 164.001 29.37 164.821 29.37V30C164.201 29.94 163.581 29.91 162.961 29.91C162.281 29.91 161.641 29.94 161.041 30C160.461 30.06 159.921 30.17 159.421 30.33V10.08C159.421 9.18 159.261 8.52 158.941 8.1C158.641 7.66 158.081 7.44 157.261 7.44V6.81C157.901 6.87 158.521 6.9 159.121 6.9C159.781 6.9 160.411 6.87 161.011 6.81C161.611 6.73 162.161 6.62 162.661 6.48ZM155.911 14.1C156.791 14.1 157.591 14.29 158.311 14.67C159.051 15.05 159.571 15.69 159.871 16.59L159.511 16.92C159.231 16.2 158.821 15.68 158.281 15.36C157.741 15.02 157.131 14.85 156.451 14.85C155.311 14.85 154.381 15.46 153.661 16.68C152.941 17.88 152.591 19.74 152.611 22.26C152.611 23.92 152.751 25.28 153.031 26.34C153.311 27.38 153.721 28.15 154.261 28.65C154.821 29.15 155.491 29.4 156.271 29.4C157.051 29.4 157.751 29.07 158.371 28.41C159.011 27.75 159.391 26.8 159.511 25.56L159.781 26.19C159.581 27.55 159.101 28.6 158.341 29.34C157.581 30.06 156.561 30.42 155.281 30.42C154.061 30.42 152.981 30.13 152.041 29.55C151.121 28.95 150.411 28.05 149.911 26.85C149.411 25.63 149.161 24.1 149.161 22.26C149.161 20.44 149.461 18.93 150.061 17.73C150.681 16.51 151.501 15.6 152.521 15C153.541 14.4 154.671 14.1 155.911 14.1ZM169.828 6.96C170.448 6.96 170.968 7.16 171.388 7.56C171.808 7.94 172.018 8.42 172.018 9C172.018 9.58 171.808 10.07 171.388 10.47C170.968 10.85 170.448 11.04 169.828 11.04C169.208 11.04 168.688 10.85 168.268 10.47C167.848 10.07 167.638 9.58 167.638 9C167.638 8.42 167.848 7.94 168.268 7.56C168.688 7.16 169.208 6.96 169.828 6.96ZM171.628 14.19V27.21C171.628 28.05 171.788 28.62 172.108 28.92C172.448 29.22 173.008 29.37 173.788 29.37V30C173.448 29.98 172.918 29.96 172.198 29.94C171.498 29.9 170.778 29.88 170.038 29.88C169.338 29.88 168.618 29.9 167.878 29.94C167.138 29.96 166.588 29.98 166.228 30V29.37C167.008 29.37 167.558 29.22 167.878 28.92C168.218 28.62 168.388 28.05 168.388 27.21V17.79C168.388 16.89 168.238 16.23 167.938 15.81C167.638 15.37 167.068 15.15 166.228 15.15V14.52C166.868 14.58 167.488 14.61 168.088 14.61C168.768 14.61 169.398 14.58 169.978 14.52C170.578 14.44 171.128 14.33 171.628 14.19ZM180.802 14.1C181.602 14.1 182.292 14.23 182.872 14.49C183.472 14.73 183.902 14.95 184.162 15.15C184.822 15.67 185.232 15.33 185.392 14.13H186.052C186.012 14.69 185.982 15.37 185.962 16.17C185.942 16.95 185.932 17.99 185.932 19.29H185.272C185.152 18.55 184.942 17.83 184.642 17.13C184.362 16.43 183.942 15.85 183.382 15.39C182.842 14.93 182.132 14.7 181.252 14.7C180.592 14.7 180.042 14.89 179.602 15.27C179.162 15.63 178.942 16.17 178.942 16.89C178.942 17.49 179.122 18.01 179.482 18.45C179.842 18.89 180.302 19.3 180.862 19.68C181.442 20.06 182.062 20.47 182.722 20.91C183.462 21.41 184.122 21.91 184.702 22.41C185.302 22.89 185.772 23.43 186.112 24.03C186.472 24.63 186.652 25.33 186.652 26.13C186.652 27.05 186.402 27.83 185.902 28.47C185.422 29.11 184.782 29.6 183.982 29.94C183.182 30.26 182.302 30.42 181.342 30.42C180.862 30.42 180.412 30.37 179.992 30.27C179.572 30.19 179.182 30.08 178.822 29.94C178.602 29.82 178.382 29.7 178.162 29.58C177.962 29.44 177.762 29.31 177.562 29.19C177.362 29.05 177.182 29.07 177.022 29.25C176.862 29.43 176.742 29.75 176.662 30.21H176.002C176.042 29.57 176.072 28.79 176.092 27.87C176.112 26.95 176.122 25.73 176.122 24.21H176.782C176.922 25.31 177.132 26.28 177.412 27.12C177.692 27.96 178.102 28.62 178.642 29.1C179.202 29.56 179.962 29.79 180.922 29.79C181.302 29.79 181.682 29.71 182.062 29.55C182.442 29.37 182.752 29.09 182.992 28.71C183.252 28.33 183.382 27.82 183.382 27.18C183.382 26.3 183.072 25.58 182.452 25.02C181.852 24.44 181.072 23.83 180.112 23.19C179.432 22.71 178.782 22.24 178.162 21.78C177.562 21.3 177.072 20.77 176.692 20.19C176.312 19.59 176.122 18.88 176.122 18.06C176.122 17.16 176.332 16.42 176.752 15.84C177.192 15.26 177.772 14.83 178.492 14.55C179.212 14.25 179.982 14.1 180.802 14.1ZM196.227 14.1C197.987 14.1 199.367 14.63 200.367 15.69C201.367 16.75 201.867 18.43 201.867 20.73H191.517L191.457 20.16H198.687C198.707 19.18 198.627 18.28 198.447 17.46C198.267 16.62 197.987 15.95 197.607 15.45C197.227 14.95 196.727 14.7 196.107 14.7C195.247 14.7 194.497 15.16 193.857 16.08C193.237 16.98 192.857 18.43 192.717 20.43L192.807 20.58C192.787 20.86 192.767 21.17 192.747 21.51C192.727 21.83 192.717 22.15 192.717 22.47C192.717 23.85 192.927 25.01 193.347 25.95C193.767 26.89 194.317 27.6 194.997 28.08C195.677 28.54 196.367 28.77 197.067 28.77C197.607 28.77 198.127 28.69 198.627 28.53C199.147 28.35 199.637 28.06 200.097 27.66C200.557 27.24 200.967 26.67 201.327 25.95L201.927 26.19C201.687 26.87 201.317 27.54 200.817 28.2C200.317 28.86 199.677 29.4 198.897 29.82C198.117 30.22 197.207 30.42 196.167 30.42C194.767 30.42 193.547 30.11 192.507 29.49C191.467 28.85 190.667 27.94 190.107 26.76C189.547 25.58 189.267 24.18 189.267 22.56C189.267 20.78 189.557 19.26 190.137 18C190.717 16.74 191.527 15.78 192.567 15.12C193.627 14.44 194.847 14.1 196.227 14.1Z" fill="#625E5E"/>
</svg>
