<svg width="212" height="40" viewBox="0 0 212 40" fill="none" xmlns="http://www.w3.org/2000/svg">
<path d="M10.7801 13.9282V13.9566C10.7805 14.5124 10.6883 15.0642 10.5077 15.5875L10.5183 15.5536C10.3427 16.0636 10.0444 16.5186 9.65158 16.8756L9.64804 16.8783C9.2757 17.2258 8.78043 17.4375 8.2374 17.4375H8.19495H8.19672C7.48029 17.4333 6.79418 17.1373 6.28639 16.6134C5.73165 16.0855 5.30007 15.4338 5.02434 14.7074L5.01284 14.6726C4.74559 13.9862 4.60489 13.2539 4.59805 12.5137V12.4816C4.59805 11.9095 4.69445 11.3604 4.87045 10.8507L4.85984 10.8846C5.03543 10.3746 5.33376 9.91958 5.72656 9.56262L5.7301 9.55987C6.12977 9.18713 6.6519 8.98704 7.18938 9.00065H7.18672C7.90337 9.00383 8.58986 9.29999 9.09705 9.82481C9.64625 10.3526 10.0742 11.0014 10.3494 11.7234L10.3609 11.7582C10.6165 12.4 10.7677 13.1453 10.7757 13.9255V13.9282H10.7801ZM6.05291 20.8479L6.05379 20.9249C6.05485 21.6142 5.84934 22.287 5.46566 22.85L5.47273 22.839C5.29778 23.1003 5.06443 23.3138 4.79261 23.4613C4.52079 23.6088 4.21857 23.6859 3.91175 23.6861L3.82419 23.6843H3.82861C3.10371 23.676 2.40694 23.3922 1.87053 22.8867L1.87318 22.8895C1.30254 22.3828 0.840982 21.7575 0.518439 21.0541C0.195897 20.3507 0.0195677 19.5848 0.000884411 18.8062V18.7989L0 18.7237C0 18.0041 0.217565 17.3367 0.588133 16.7894L0.581058 16.8004C0.76309 16.5246 1.01006 16.3015 1.29855 16.1523C1.58705 16.0031 1.90752 15.9327 2.2296 15.9478H2.22518C2.95009 15.9561 3.64685 16.2399 4.18326 16.7454L4.18061 16.7426C4.75214 17.2523 5.2141 17.8806 5.53662 18.587C5.85913 19.2933 6.03502 20.062 6.05291 20.8433V20.8497V20.8479ZM11.5018 20.461C12.793 20.534 14.0296 21.0249 15.0376 21.8645L15.0253 21.8545C16.2591 22.7628 17.3223 23.8975 18.1623 25.2024L18.1906 25.2492C18.9476 26.3035 19.3901 27.5647 19.4632 28.8768L19.4641 28.8951L19.4659 28.9749C19.4659 29.3452 19.3783 29.6954 19.2236 30.0026L19.2289 29.9906C19.0804 30.2723 18.8484 30.4969 18.5673 30.6314L18.5585 30.6351C18.3011 30.7625 18.0013 30.8625 17.6882 30.9184L17.667 30.9211C17.3405 30.9745 17.0105 31.0009 16.68 31H16.6137H16.6172C15.7059 30.9374 14.8119 30.7123 13.9746 30.3344L14.0259 30.3555C13.2351 29.9981 12.392 29.7808 11.5318 29.7129L11.5044 29.711C10.5289 29.7862 9.62504 30.0136 8.78485 30.3702L8.84411 30.3482C7.968 30.7129 7.04056 30.9278 6.09801 30.9844L6.07325 30.9853C4.38343 30.9865 3.53853 30.2901 3.53853 28.896C3.57683 27.9192 3.84785 26.9674 4.32742 26.1256L4.31239 26.1531C4.8298 25.1444 5.47987 24.2151 6.24394 23.3918L6.2404 23.3955C6.98722 22.587 7.84129 21.8927 8.77689 21.3337L8.83173 21.3035C9.63079 20.7867 10.5464 20.4956 11.4876 20.4592H11.4982L11.5018 20.461ZM14.805 17.4384H14.7644C14.2428 17.439 13.7396 17.2391 13.352 16.8774L13.3537 16.8792C12.964 16.5276 12.667 16.079 12.4905 15.5756L12.4835 15.5536C12.308 15.0409 12.2191 14.5006 12.2208 13.9566V13.9264V13.9282C12.2287 13.1444 12.38 12.4 12.6497 11.7179L12.6356 11.7582C12.9096 11.0241 13.3408 10.3639 13.8967 9.82756L13.9003 9.82481C14.4076 9.30089 15.0936 9.00514 15.8097 9.00157H15.8513C16.3943 9.00157 16.8896 9.21426 17.2637 9.56262L17.2619 9.56079C17.6493 9.9119 17.9482 10.3574 18.1251 10.8644L18.1322 10.8864C18.3011 11.365 18.3984 11.9178 18.3984 12.4935V12.5118C18.3907 13.2676 18.2452 14.0142 17.9695 14.7139L17.9836 14.6735C17.7093 15.4117 17.2748 16.0745 16.7136 16.6106L16.7101 16.6143C16.202 17.1369 15.5163 17.4318 14.8006 17.4357L14.805 17.4384ZM20.7748 15.9496L20.8562 15.9478C21.5027 15.9478 22.0731 16.2833 22.4145 16.7958L22.4189 16.8022C22.7989 17.3665 23.0018 18.0384 23 18.7265L22.9991 18.8053V18.8017C22.9817 19.5798 22.8066 20.3454 22.4853 21.0488C22.164 21.7523 21.7035 22.3778 21.1339 22.8849L21.1268 22.8913C20.5912 23.3949 19.8962 23.6777 19.1731 23.6861H19.1714C18.852 23.701 18.5342 23.6319 18.2475 23.4852C17.9608 23.3386 17.7146 23.1191 17.5317 22.8473L17.5273 22.8409C17.1322 22.2578 16.9287 21.5583 16.9471 20.846V20.8497C16.964 20.0688 17.1388 19.3003 17.46 18.5939C17.7813 17.8874 18.242 17.2586 18.8123 16.7481L18.8194 16.7417C19.3544 16.2397 20.0479 15.9577 20.7695 15.9487H20.7713L20.7748 15.9496Z" fill="#625E5E"/>
<path d="M26.17 10.76C26.63 10.78 27.22 10.8 27.94 10.82C28.68 10.84 29.41 10.85 30.13 10.85C31.09 10.85 32 10.84 32.86 10.82C33.74 10.8 34.36 10.79 34.72 10.79C37.26 10.79 39.16 11.34 40.42 12.44C41.68 13.54 42.31 14.96 42.31 16.7C42.31 17.42 42.18 18.18 41.92 18.98C41.68 19.76 41.25 20.49 40.63 21.17C40.01 21.83 39.17 22.37 38.11 22.79C37.05 23.21 35.7 23.42 34.06 23.42H31.12V22.82H33.76C35.1 22.82 36.12 22.55 36.82 22.01C37.54 21.47 38.02 20.76 38.26 19.88C38.52 19 38.65 18.05 38.65 17.03C38.65 15.13 38.31 13.71 37.63 12.77C36.95 11.83 35.77 11.36 34.09 11.36C33.23 11.36 32.66 11.53 32.38 11.87C32.12 12.21 31.99 12.9 31.99 13.94V28.76C31.99 29.5 32.07 30.06 32.23 30.44C32.39 30.8 32.69 31.04 33.13 31.16C33.57 31.28 34.22 31.35 35.08 31.37V32C34.54 31.96 33.84 31.94 32.98 31.94C32.12 31.92 31.23 31.91 30.31 31.91C29.51 31.91 28.74 31.92 28 31.94C27.28 31.94 26.67 31.96 26.17 32V31.4C26.85 31.36 27.36 31.28 27.7 31.16C28.04 31.04 28.26 30.8 28.36 30.44C28.48 30.08 28.54 29.54 28.54 28.82V13.94C28.54 13.2 28.48 12.66 28.36 12.32C28.26 11.96 28.03 11.72 27.67 11.6C27.33 11.46 26.83 11.38 26.17 11.36V10.76ZM47.8818 32.21C47.0418 32.21 46.3218 32.05 45.7218 31.73C45.1218 31.41 44.6718 30.97 44.3718 30.41C44.0718 29.85 43.9218 29.21 43.9218 28.49C43.9218 27.61 44.1218 26.9 44.5218 26.36C44.9218 25.8 45.4318 25.35 46.0518 25.01C46.6918 24.67 47.3618 24.39 48.0618 24.17C48.7818 23.93 49.4518 23.71 50.0718 23.51C50.7118 23.29 51.2318 23.04 51.6318 22.76C52.0518 22.48 52.2618 22.11 52.2618 21.65V19.61C52.2618 18.89 52.1418 18.32 51.9018 17.9C51.6818 17.46 51.3718 17.15 50.9718 16.97C50.5918 16.79 50.1318 16.7 49.5918 16.7C49.1318 16.7 48.6418 16.77 48.1218 16.91C47.6018 17.03 47.1918 17.28 46.8918 17.66C47.3318 17.78 47.6918 18.02 47.9718 18.38C48.2718 18.72 48.4218 19.15 48.4218 19.67C48.4218 20.23 48.2318 20.67 47.8518 20.99C47.4918 21.31 47.0318 21.47 46.4718 21.47C45.8518 21.47 45.3918 21.28 45.0918 20.9C44.7918 20.5 44.6418 20.04 44.6418 19.52C44.6418 18.98 44.7718 18.54 45.0318 18.2C45.3118 17.86 45.6718 17.54 46.1118 17.24C46.5918 16.92 47.2018 16.65 47.9418 16.43C48.7018 16.21 49.5418 16.1 50.4618 16.1C51.3218 16.1 52.0618 16.2 52.6818 16.4C53.3218 16.58 53.8518 16.88 54.2718 17.3C54.7718 17.76 55.1018 18.34 55.2618 19.04C55.4218 19.72 55.5018 20.55 55.5018 21.53V29.81C55.5018 30.31 55.5618 30.67 55.6818 30.89C55.8218 31.09 56.0418 31.19 56.3418 31.19C56.5418 31.19 56.7318 31.14 56.9118 31.04C57.1118 30.94 57.3418 30.79 57.6018 30.59L57.9018 31.1C57.4818 31.44 57.0518 31.71 56.6118 31.91C56.1918 32.11 55.6518 32.21 54.9918 32.21C54.3518 32.21 53.8318 32.11 53.4318 31.91C53.0318 31.71 52.7318 31.42 52.5318 31.04C52.3518 30.66 52.2618 30.19 52.2618 29.63C51.7418 30.47 51.1218 31.11 50.4018 31.55C49.6818 31.99 48.8418 32.21 47.8818 32.21ZM49.3218 30.77C49.8818 30.77 50.4018 30.61 50.8818 30.29C51.3818 29.97 51.8418 29.49 52.2618 28.85V22.88C52.0418 23.2 51.7218 23.48 51.3018 23.72C50.8818 23.94 50.4318 24.17 49.9518 24.41C49.4718 24.65 49.0118 24.93 48.5718 25.25C48.1518 25.55 47.8018 25.94 47.5218 26.42C47.2418 26.9 47.1018 27.51 47.1018 28.25C47.1018 29.03 47.3018 29.65 47.7018 30.11C48.1018 30.55 48.6418 30.77 49.3218 30.77ZM64.8032 16.52V17.15C64.3232 17.15 63.8932 17.19 63.5132 17.27C63.1532 17.33 62.9132 17.51 62.7932 17.81C62.6932 18.11 62.7732 18.64 63.0332 19.4L66.0632 28.34L65.7932 28.46L69.9032 16.43L70.5032 16.7L65.3132 32.12C65.1532 32.12 64.9932 32.12 64.8332 32.12C64.6732 32.12 64.5032 32.12 64.3232 32.12L59.4632 18.83C59.1432 18.03 58.8232 17.55 58.5032 17.39C58.2032 17.23 57.9432 17.15 57.7232 17.15V16.52C58.2032 16.58 58.6932 16.63 59.1932 16.67C59.7132 16.69 60.2832 16.7 60.9032 16.7C61.5232 16.7 62.1732 16.68 62.8532 16.64C63.5532 16.6 64.2032 16.56 64.8032 16.52ZM81.0032 16.52V17.12C80.6232 17.18 80.2632 17.37 79.9232 17.69C79.5832 18.01 79.2832 18.58 79.0232 19.4L74.7932 32.12C74.6332 32.12 74.4632 32.12 74.2832 32.12C74.1232 32.12 73.9632 32.12 73.8032 32.12L69.1532 20.09L69.9032 16.43C70.1032 16.45 70.2932 16.46 70.4732 16.46C70.6732 16.44 70.8732 16.43 71.0732 16.43L75.5732 28.73L75.3032 28.76L77.9432 20.6C78.2032 19.78 78.3032 19.13 78.2432 18.65C78.1832 18.17 77.9732 17.81 77.6132 17.57C77.2532 17.33 76.7132 17.18 75.9932 17.12V16.52C76.3532 16.54 76.6732 16.56 76.9532 16.58C77.2532 16.58 77.5432 16.59 77.8232 16.61C78.1232 16.61 78.4232 16.61 78.7232 16.61C79.1632 16.61 79.5732 16.6 79.9532 16.58C80.3532 16.56 80.7032 16.54 81.0032 16.52ZM87.2005 16.1C88.0005 16.1 88.6905 16.23 89.2705 16.49C89.8705 16.73 90.3005 16.95 90.5605 17.15C91.2205 17.67 91.6305 17.33 91.7905 16.13H92.4505C92.4105 16.69 92.3805 17.37 92.3605 18.17C92.3405 18.95 92.3305 19.99 92.3305 21.29H91.6705C91.5505 20.55 91.3405 19.83 91.0405 19.13C90.7605 18.43 90.3405 17.85 89.7805 17.39C89.2405 16.93 88.5305 16.7 87.6505 16.7C86.9905 16.7 86.4405 16.89 86.0005 17.27C85.5605 17.63 85.3405 18.17 85.3405 18.89C85.3405 19.49 85.5205 20.01 85.8805 20.45C86.2405 20.89 86.7005 21.3 87.2605 21.68C87.8405 22.06 88.4605 22.47 89.1205 22.91C89.8605 23.41 90.5205 23.91 91.1005 24.41C91.7005 24.89 92.1705 25.43 92.5105 26.03C92.8705 26.63 93.0505 27.33 93.0505 28.13C93.0505 29.05 92.8005 29.83 92.3005 30.47C91.8205 31.11 91.1805 31.6 90.3805 31.94C89.5805 32.26 88.7005 32.42 87.7405 32.42C87.2605 32.42 86.8105 32.37 86.3905 32.27C85.9705 32.19 85.5805 32.08 85.2205 31.94C85.0005 31.82 84.7805 31.7 84.5605 31.58C84.3605 31.44 84.1605 31.31 83.9605 31.19C83.7605 31.05 83.5805 31.07 83.4205 31.25C83.2605 31.43 83.1405 31.75 83.0605 32.21H82.4005C82.4405 31.57 82.4705 30.79 82.4905 29.87C82.5105 28.95 82.5205 27.73 82.5205 26.21H83.1805C83.3205 27.31 83.5305 28.28 83.8105 29.12C84.0905 29.96 84.5005 30.62 85.0405 31.1C85.6005 31.56 86.3605 31.79 87.3205 31.79C87.7005 31.79 88.0805 31.71 88.4605 31.55C88.8405 31.37 89.1505 31.09 89.3905 30.71C89.6505 30.33 89.7805 29.82 89.7805 29.18C89.7805 28.3 89.4705 27.58 88.8505 27.02C88.2505 26.44 87.4705 25.83 86.5105 25.19C85.8305 24.71 85.1805 24.24 84.5605 23.78C83.9605 23.3 83.4705 22.77 83.0905 22.19C82.7105 21.59 82.5205 20.88 82.5205 20.06C82.5205 19.16 82.7305 18.42 83.1505 17.84C83.5905 17.26 84.1705 16.83 84.8905 16.55C85.6105 16.25 86.3805 16.1 87.2005 16.1ZM95.2813 10.76C95.7413 10.78 96.3313 10.8 97.0513 10.82C97.7913 10.84 98.5213 10.85 99.2413 10.85C100.201 10.85 101.111 10.84 101.971 10.82C102.851 10.8 103.471 10.79 103.831 10.79C106.371 10.79 108.271 11.34 109.531 12.44C110.791 13.54 111.421 14.96 111.421 16.7C111.421 17.42 111.291 18.18 111.031 18.98C110.791 19.76 110.361 20.49 109.741 21.17C109.121 21.83 108.281 22.37 107.221 22.79C106.161 23.21 104.811 23.42 103.171 23.42H100.231V22.82H102.871C104.211 22.82 105.231 22.55 105.931 22.01C106.651 21.47 107.131 20.76 107.371 19.88C107.631 19 107.761 18.05 107.761 17.03C107.761 15.13 107.421 13.71 106.741 12.77C106.061 11.83 104.881 11.36 103.201 11.36C102.341 11.36 101.771 11.53 101.491 11.87C101.231 12.21 101.101 12.9 101.101 13.94V28.76C101.101 29.5 101.181 30.06 101.341 30.44C101.501 30.8 101.801 31.04 102.241 31.16C102.681 31.28 103.331 31.35 104.191 31.37V32C103.651 31.96 102.951 31.94 102.091 31.94C101.231 31.92 100.341 31.91 99.4213 31.91C98.6213 31.91 97.8513 31.92 97.1113 31.94C96.3913 31.94 95.7813 31.96 95.2813 32V31.4C95.9613 31.36 96.4713 31.28 96.8113 31.16C97.1513 31.04 97.3713 30.8 97.4713 30.44C97.5913 30.08 97.6513 29.54 97.6513 28.82V13.94C97.6513 13.2 97.5913 12.66 97.4713 12.32C97.3713 11.96 97.1413 11.72 96.7813 11.6C96.4413 11.46 95.9413 11.38 95.2813 11.36V10.76ZM116.993 32.21C116.153 32.21 115.433 32.05 114.833 31.73C114.233 31.41 113.783 30.97 113.483 30.41C113.183 29.85 113.033 29.21 113.033 28.49C113.033 27.61 113.233 26.9 113.633 26.36C114.033 25.8 114.543 25.35 115.163 25.01C115.803 24.67 116.473 24.39 117.173 24.17C117.893 23.93 118.563 23.71 119.183 23.51C119.823 23.29 120.343 23.04 120.743 22.76C121.163 22.48 121.373 22.11 121.373 21.65V19.61C121.373 18.89 121.253 18.32 121.013 17.9C120.793 17.46 120.483 17.15 120.083 16.97C119.703 16.79 119.243 16.7 118.703 16.7C118.243 16.7 117.753 16.77 117.233 16.91C116.713 17.03 116.303 17.28 116.003 17.66C116.443 17.78 116.803 18.02 117.083 18.38C117.383 18.72 117.533 19.15 117.533 19.67C117.533 20.23 117.343 20.67 116.963 20.99C116.603 21.31 116.143 21.47 115.583 21.47C114.963 21.47 114.503 21.28 114.203 20.9C113.903 20.5 113.753 20.04 113.753 19.52C113.753 18.98 113.883 18.54 114.143 18.2C114.423 17.86 114.783 17.54 115.223 17.24C115.703 16.92 116.313 16.65 117.053 16.43C117.813 16.21 118.653 16.1 119.573 16.1C120.433 16.1 121.173 16.2 121.793 16.4C122.433 16.58 122.963 16.88 123.383 17.3C123.883 17.76 124.213 18.34 124.373 19.04C124.533 19.72 124.613 20.55 124.613 21.53V29.81C124.613 30.31 124.673 30.67 124.793 30.89C124.933 31.09 125.153 31.19 125.453 31.19C125.653 31.19 125.843 31.14 126.023 31.04C126.223 30.94 126.453 30.79 126.713 30.59L127.013 31.1C126.593 31.44 126.163 31.71 125.723 31.91C125.303 32.11 124.763 32.21 124.103 32.21C123.463 32.21 122.943 32.11 122.543 31.91C122.143 31.71 121.843 31.42 121.643 31.04C121.463 30.66 121.373 30.19 121.373 29.63C120.853 30.47 120.233 31.11 119.513 31.55C118.793 31.99 117.953 32.21 116.993 32.21ZM118.433 30.77C118.993 30.77 119.513 30.61 119.993 30.29C120.493 29.97 120.953 29.49 121.373 28.85V22.88C121.153 23.2 120.833 23.48 120.413 23.72C119.993 23.94 119.543 24.17 119.063 24.41C118.583 24.65 118.123 24.93 117.683 25.25C117.263 25.55 116.913 25.94 116.633 26.42C116.353 26.9 116.213 27.51 116.213 28.25C116.213 29.03 116.413 29.65 116.813 30.11C117.213 30.55 117.753 30.77 118.433 30.77ZM137.57 16.1C138.15 16.1 138.64 16.22 139.04 16.46C139.46 16.7 139.77 17.01 139.97 17.39C140.19 17.75 140.3 18.16 140.3 18.62C140.3 19.2 140.12 19.7 139.76 20.12C139.42 20.52 138.96 20.72 138.38 20.72C137.88 20.72 137.45 20.57 137.09 20.27C136.75 19.97 136.58 19.56 136.58 19.04C136.58 18.6 136.69 18.23 136.91 17.93C137.15 17.61 137.42 17.36 137.72 17.18C137.52 17.02 137.28 16.95 137 16.97C136.46 16.99 135.96 17.17 135.5 17.51C135.04 17.83 134.65 18.25 134.33 18.77C134.01 19.27 133.76 19.81 133.58 20.39C133.4 20.97 133.31 21.51 133.31 22.01V28.91C133.31 29.89 133.58 30.55 134.12 30.89C134.66 31.21 135.41 31.37 136.37 31.37V32C135.91 31.98 135.25 31.96 134.39 31.94C133.55 31.9 132.66 31.88 131.72 31.88C131 31.88 130.28 31.9 129.56 31.94C128.84 31.96 128.29 31.98 127.91 32V31.37C128.69 31.37 129.24 31.22 129.56 30.92C129.9 30.62 130.07 30.05 130.07 29.21V19.79C130.07 18.89 129.92 18.23 129.62 17.81C129.32 17.37 128.75 17.15 127.91 17.15V16.52C128.55 16.58 129.17 16.61 129.77 16.61C130.45 16.61 131.08 16.58 131.66 16.52C132.26 16.44 132.81 16.33 133.31 16.19V19.64C133.55 19.06 133.87 18.5 134.27 17.96C134.67 17.42 135.15 16.98 135.71 16.64C136.27 16.28 136.89 16.1 137.57 16.1ZM145.704 32.21C144.864 32.21 144.144 32.05 143.544 31.73C142.944 31.41 142.494 30.97 142.194 30.41C141.894 29.85 141.744 29.21 141.744 28.49C141.744 27.61 141.944 26.9 142.344 26.36C142.744 25.8 143.254 25.35 143.874 25.01C144.514 24.67 145.184 24.39 145.884 24.17C146.604 23.93 147.274 23.71 147.894 23.51C148.534 23.29 149.054 23.04 149.454 22.76C149.874 22.48 150.084 22.11 150.084 21.65V19.61C150.084 18.89 149.964 18.32 149.724 17.9C149.504 17.46 149.194 17.15 148.794 16.97C148.414 16.79 147.954 16.7 147.414 16.7C146.954 16.7 146.464 16.77 145.944 16.91C145.424 17.03 145.014 17.28 144.714 17.66C145.154 17.78 145.514 18.02 145.794 18.38C146.094 18.72 146.244 19.15 146.244 19.67C146.244 20.23 146.054 20.67 145.674 20.99C145.314 21.31 144.854 21.47 144.294 21.47C143.674 21.47 143.214 21.28 142.914 20.9C142.614 20.5 142.464 20.04 142.464 19.52C142.464 18.98 142.594 18.54 142.854 18.2C143.134 17.86 143.494 17.54 143.934 17.24C144.414 16.92 145.024 16.65 145.764 16.43C146.524 16.21 147.364 16.1 148.284 16.1C149.144 16.1 149.884 16.2 150.504 16.4C151.144 16.58 151.674 16.88 152.094 17.3C152.594 17.76 152.924 18.34 153.084 19.04C153.244 19.72 153.324 20.55 153.324 21.53V29.81C153.324 30.31 153.384 30.67 153.504 30.89C153.644 31.09 153.864 31.19 154.164 31.19C154.364 31.19 154.554 31.14 154.734 31.04C154.934 30.94 155.164 30.79 155.424 30.59L155.724 31.1C155.304 31.44 154.874 31.71 154.434 31.91C154.014 32.11 153.474 32.21 152.814 32.21C152.174 32.21 151.654 32.11 151.254 31.91C150.854 31.71 150.554 31.42 150.354 31.04C150.174 30.66 150.084 30.19 150.084 29.63C149.564 30.47 148.944 31.11 148.224 31.55C147.504 31.99 146.664 32.21 145.704 32.21ZM147.144 30.77C147.704 30.77 148.224 30.61 148.704 30.29C149.204 29.97 149.664 29.49 150.084 28.85V22.88C149.864 23.2 149.544 23.48 149.124 23.72C148.704 23.94 148.254 24.17 147.774 24.41C147.294 24.65 146.834 24.93 146.394 25.25C145.974 25.55 145.624 25.94 145.344 26.42C145.064 26.9 144.924 27.51 144.924 28.25C144.924 29.03 145.124 29.65 145.524 30.11C145.924 30.55 146.464 30.77 147.144 30.77ZM170.661 8.48V28.73C170.661 29.63 170.811 30.3 171.111 30.74C171.431 31.16 172.001 31.37 172.821 31.37V32C172.201 31.94 171.581 31.91 170.961 31.91C170.281 31.91 169.641 31.94 169.041 32C168.461 32.06 167.921 32.17 167.421 32.33V12.08C167.421 11.18 167.261 10.52 166.941 10.1C166.641 9.66 166.081 9.44 165.261 9.44V8.81C165.901 8.87 166.521 8.9 167.121 8.9C167.781 8.9 168.411 8.87 169.011 8.81C169.611 8.73 170.161 8.62 170.661 8.48ZM163.911 16.1C164.791 16.1 165.591 16.29 166.311 16.67C167.051 17.05 167.571 17.69 167.871 18.59L167.511 18.92C167.231 18.2 166.821 17.68 166.281 17.36C165.741 17.02 165.131 16.85 164.451 16.85C163.311 16.85 162.381 17.46 161.661 18.68C160.941 19.88 160.591 21.74 160.611 24.26C160.611 25.92 160.751 27.28 161.031 28.34C161.311 29.38 161.721 30.15 162.261 30.65C162.821 31.15 163.491 31.4 164.271 31.4C165.051 31.4 165.751 31.07 166.371 30.41C167.011 29.75 167.391 28.8 167.511 27.56L167.781 28.19C167.581 29.55 167.101 30.6 166.341 31.34C165.581 32.06 164.561 32.42 163.281 32.42C162.061 32.42 160.981 32.13 160.041 31.55C159.121 30.95 158.411 30.05 157.911 28.85C157.411 27.63 157.161 26.1 157.161 24.26C157.161 22.44 157.461 20.93 158.061 19.73C158.681 18.51 159.501 17.6 160.521 17C161.541 16.4 162.671 16.1 163.911 16.1ZM177.828 8.96C178.448 8.96 178.968 9.16 179.388 9.56C179.808 9.94 180.018 10.42 180.018 11C180.018 11.58 179.808 12.07 179.388 12.47C178.968 12.85 178.448 13.04 177.828 13.04C177.208 13.04 176.688 12.85 176.268 12.47C175.848 12.07 175.638 11.58 175.638 11C175.638 10.42 175.848 9.94 176.268 9.56C176.688 9.16 177.208 8.96 177.828 8.96ZM179.628 16.19V29.21C179.628 30.05 179.788 30.62 180.108 30.92C180.448 31.22 181.008 31.37 181.788 31.37V32C181.448 31.98 180.918 31.96 180.198 31.94C179.498 31.9 178.778 31.88 178.038 31.88C177.338 31.88 176.618 31.9 175.878 31.94C175.138 31.96 174.588 31.98 174.228 32V31.37C175.008 31.37 175.558 31.22 175.878 30.92C176.218 30.62 176.388 30.05 176.388 29.21V19.79C176.388 18.89 176.238 18.23 175.938 17.81C175.638 17.37 175.068 17.15 174.228 17.15V16.52C174.868 16.58 175.488 16.61 176.088 16.61C176.768 16.61 177.398 16.58 177.978 16.52C178.578 16.44 179.128 16.33 179.628 16.19ZM188.802 16.1C189.602 16.1 190.292 16.23 190.872 16.49C191.472 16.73 191.902 16.95 192.162 17.15C192.822 17.67 193.232 17.33 193.392 16.13H194.052C194.012 16.69 193.982 17.37 193.962 18.17C193.942 18.95 193.932 19.99 193.932 21.29H193.272C193.152 20.55 192.942 19.83 192.642 19.13C192.362 18.43 191.942 17.85 191.382 17.39C190.842 16.93 190.132 16.7 189.252 16.7C188.592 16.7 188.042 16.89 187.602 17.27C187.162 17.63 186.942 18.17 186.942 18.89C186.942 19.49 187.122 20.01 187.482 20.45C187.842 20.89 188.302 21.3 188.862 21.68C189.442 22.06 190.062 22.47 190.722 22.91C191.462 23.41 192.122 23.91 192.702 24.41C193.302 24.89 193.772 25.43 194.112 26.03C194.472 26.63 194.652 27.33 194.652 28.13C194.652 29.05 194.402 29.83 193.902 30.47C193.422 31.11 192.782 31.6 191.982 31.94C191.182 32.26 190.302 32.42 189.342 32.42C188.862 32.42 188.412 32.37 187.992 32.27C187.572 32.19 187.182 32.08 186.822 31.94C186.602 31.82 186.382 31.7 186.162 31.58C185.962 31.44 185.762 31.31 185.562 31.19C185.362 31.05 185.182 31.07 185.022 31.25C184.862 31.43 184.742 31.75 184.662 32.21H184.002C184.042 31.57 184.072 30.79 184.092 29.87C184.112 28.95 184.122 27.73 184.122 26.21H184.782C184.922 27.31 185.132 28.28 185.412 29.12C185.692 29.96 186.102 30.62 186.642 31.1C187.202 31.56 187.962 31.79 188.922 31.79C189.302 31.79 189.682 31.71 190.062 31.55C190.442 31.37 190.752 31.09 190.992 30.71C191.252 30.33 191.382 29.82 191.382 29.18C191.382 28.3 191.072 27.58 190.452 27.02C189.852 26.44 189.072 25.83 188.112 25.19C187.432 24.71 186.782 24.24 186.162 23.78C185.562 23.3 185.072 22.77 184.692 22.19C184.312 21.59 184.122 20.88 184.122 20.06C184.122 19.16 184.332 18.42 184.752 17.84C185.192 17.26 185.772 16.83 186.492 16.55C187.212 16.25 187.982 16.1 188.802 16.1ZM204.227 16.1C205.987 16.1 207.367 16.63 208.367 17.69C209.367 18.75 209.867 20.43 209.867 22.73H199.517L199.457 22.16H206.687C206.707 21.18 206.627 20.28 206.447 19.46C206.267 18.62 205.987 17.95 205.607 17.45C205.227 16.95 204.727 16.7 204.107 16.7C203.247 16.7 202.497 17.16 201.857 18.08C201.237 18.98 200.857 20.43 200.717 22.43L200.807 22.58C200.787 22.86 200.767 23.17 200.747 23.51C200.727 23.83 200.717 24.15 200.717 24.47C200.717 25.85 200.927 27.01 201.347 27.95C201.767 28.89 202.317 29.6 202.997 30.08C203.677 30.54 204.367 30.77 205.067 30.77C205.607 30.77 206.127 30.69 206.627 30.53C207.147 30.35 207.637 30.06 208.097 29.66C208.557 29.24 208.967 28.67 209.327 27.95L209.927 28.19C209.687 28.87 209.317 29.54 208.817 30.2C208.317 30.86 207.677 31.4 206.897 31.82C206.117 32.22 205.207 32.42 204.167 32.42C202.767 32.42 201.547 32.11 200.507 31.49C199.467 30.85 198.667 29.94 198.107 28.76C197.547 27.58 197.267 26.18 197.267 24.56C197.267 22.78 197.557 21.26 198.137 20C198.717 18.74 199.527 17.78 200.567 17.12C201.627 16.44 202.847 16.1 204.227 16.1Z" fill="#625E5E"/>
</svg>
