<svg width="57" height="11" viewBox="0 0 57 11" fill="none" xmlns="http://www.w3.org/2000/svg">
<path d="M2.89842 3.83035V3.83816C2.89853 3.99101 2.87374 4.14275 2.82518 4.28666L2.82803 4.27734C2.78082 4.41759 2.70062 4.54271 2.595 4.64089L2.59405 4.64163C2.49394 4.73719 2.36078 4.79541 2.21477 4.79541H2.20336H2.20384C2.01121 4.79426 1.82674 4.71286 1.69021 4.56878C1.54106 4.42361 1.42502 4.24439 1.35088 4.04463L1.34779 4.03506C1.27594 3.8463 1.23811 3.64492 1.23627 3.44137V3.43254C1.23627 3.27521 1.26219 3.12421 1.30951 2.98404L1.30666 2.99336C1.35387 2.85311 1.43408 2.72798 1.53969 2.62982L1.54064 2.62906C1.6481 2.52656 1.78848 2.47153 1.93299 2.47528H1.93228C2.12496 2.47615 2.30954 2.5576 2.4459 2.70192C2.59357 2.84706 2.70863 3.02548 2.78262 3.22403L2.78571 3.2336C2.85444 3.4101 2.89509 3.61506 2.89724 3.82961V3.83035H2.89842ZM1.62743 5.73327L1.62767 5.75445C1.62795 5.944 1.5727 6.12902 1.46954 6.28385L1.47144 6.28082C1.4244 6.35268 1.36166 6.41139 1.28858 6.45196C1.2155 6.49252 1.13424 6.51372 1.05174 6.51378L1.0282 6.51328H1.02939C0.834488 6.511 0.647149 6.43295 0.502925 6.29394L0.503638 6.29471C0.350211 6.15537 0.226113 5.98341 0.139392 5.78998C0.0526704 5.59654 0.00526113 5.38592 0.00023779 5.1718V5.1698L0 5.14912C0 4.95123 0.0584962 4.76769 0.15813 4.61718L0.156228 4.62021C0.20517 4.54436 0.271573 4.48301 0.349138 4.44198C0.426707 4.40095 0.512871 4.38159 0.599468 4.38574H0.598279C0.793185 4.38803 0.980521 4.46607 1.12474 4.60508L1.12403 4.60431C1.2777 4.74448 1.4019 4.91726 1.48862 5.11152C1.57533 5.30576 1.62262 5.51715 1.62743 5.73201V5.73377V5.73327ZM3.09246 5.62687C3.43963 5.64695 3.77211 5.78195 4.04313 6.01284L4.03982 6.01009C4.37155 6.25987 4.65741 6.57191 4.88326 6.93076L4.89087 6.94363C5.0944 7.23356 5.21338 7.58039 5.23303 7.94122L5.23327 7.94625L5.23376 7.9682C5.23376 8.07003 5.2102 8.16633 5.16861 8.25081L5.17003 8.24751C5.13011 8.32498 5.06773 8.38675 4.99215 8.42373L4.98979 8.42475C4.92058 8.45979 4.83997 8.48729 4.75579 8.50266L4.75009 8.5034C4.6623 8.51809 4.57358 8.52535 4.48472 8.5251H4.46689H4.46783C4.22281 8.50788 3.98244 8.44598 3.75732 8.34206L3.77111 8.34786C3.55849 8.24958 3.33181 8.18982 3.10053 8.17115L3.09316 8.17062C2.83088 8.1913 2.58786 8.25384 2.36196 8.3519L2.3779 8.34585C2.14234 8.44615 1.89298 8.50524 1.63956 8.52081L1.6329 8.52106C1.17856 8.52139 0.951397 8.32988 0.951397 7.9465C0.961695 7.67788 1.03456 7.41613 1.1635 7.18464L1.15946 7.1922C1.29858 6.91481 1.47336 6.65925 1.6788 6.43284L1.67784 6.43386C1.87864 6.21152 2.10827 6.02059 2.35982 5.86687L2.37457 5.85856C2.58941 5.71644 2.83559 5.63639 3.08865 5.62638H3.0915L3.09246 5.62687ZM3.98059 4.79566H3.96967C3.82943 4.79582 3.69414 4.74085 3.58992 4.64138L3.59038 4.64188C3.4856 4.54519 3.40575 4.42182 3.35829 4.28339L3.35641 4.27734C3.30923 4.13635 3.28532 3.98776 3.28578 3.83816V3.82986V3.83035C3.28791 3.61481 3.32858 3.4101 3.4011 3.22252L3.39731 3.2336C3.47098 3.03173 3.58691 2.85017 3.73638 2.70268L3.73734 2.70192C3.87374 2.55784 4.05818 2.47651 4.25072 2.47553H4.26191C4.4079 2.47553 4.54107 2.53402 4.64166 2.62982L4.64117 2.62932C4.74533 2.72587 4.82569 2.84838 4.87326 2.98781L4.87517 2.99386C4.92058 3.12547 4.94674 3.27749 4.94674 3.43581V3.44084C4.94467 3.64869 4.90555 3.854 4.83142 4.04642L4.83521 4.03531C4.76146 4.23832 4.64464 4.42059 4.49375 4.56801L4.49281 4.56903C4.3562 4.71275 4.17184 4.79384 3.97941 4.79492L3.98059 4.79566ZM5.58568 4.38624L5.60756 4.38574C5.78139 4.38574 5.93475 4.47801 6.02654 4.61894L6.02772 4.6207C6.12989 4.77589 6.18445 4.96066 6.18396 5.14989L6.18372 5.17156V5.17057C6.17904 5.38454 6.13196 5.59508 6.04558 5.78852C5.95919 5.98198 5.83537 6.15399 5.68223 6.29345L5.68032 6.29521C5.53631 6.4337 5.34945 6.51147 5.15503 6.51378H5.15457C5.0687 6.51787 4.98325 6.49887 4.90617 6.45853C4.82908 6.41821 4.76289 6.35785 4.71371 6.28311L4.71253 6.28135C4.6063 6.12099 4.55158 5.92863 4.55653 5.73275V5.73377C4.56108 5.51902 4.60807 5.30768 4.69443 5.11342C4.78082 4.91913 4.90469 4.74621 5.05802 4.60583L5.05993 4.60407C5.20378 4.46602 5.39024 4.38847 5.58425 4.38599H5.58474L5.58568 4.38624Z" fill="white"/>
<path d="M7.03613 2.95903C7.15981 2.96453 7.31844 2.97003 7.51203 2.97553C7.71099 2.98103 7.90726 2.98378 8.10085 2.98378C8.35896 2.98378 8.60363 2.98103 8.83486 2.97553C9.07146 2.97003 9.23816 2.96728 9.33495 2.96728C10.0179 2.96728 10.5287 3.11853 10.8675 3.42103C11.2063 3.72353 11.3757 4.11403 11.3757 4.59253C11.3757 4.79053 11.3407 4.99953 11.2708 5.21953C11.2063 5.43403 11.0907 5.63478 10.924 5.82178C10.7573 6.00328 10.5314 6.15178 10.2464 6.26728C9.96142 6.38278 9.59844 6.44053 9.1575 6.44053H8.36703V6.27553H9.07684C9.43712 6.27553 9.71137 6.20128 9.89958 6.05278C10.0932 5.90428 10.2222 5.70903 10.2867 5.46703C10.3567 5.22503 10.3916 4.96378 10.3916 4.68328C10.3916 4.16078 10.3002 3.77028 10.1174 3.51178C9.93453 3.25328 9.61727 3.12403 9.16557 3.12403C8.93434 3.12403 8.78109 3.17078 8.7058 3.26428C8.6359 3.35778 8.60094 3.54753 8.60094 3.83353V7.90903C8.60094 8.11253 8.62245 8.26653 8.66547 8.37103C8.70849 8.47003 8.78915 8.53603 8.90745 8.56903C9.02576 8.60203 9.20052 8.62128 9.43175 8.62678V8.80003C9.28656 8.78903 9.09835 8.78353 8.86712 8.78353C8.6359 8.77803 8.3966 8.77528 8.14925 8.77528C7.93415 8.77528 7.72712 8.77803 7.52816 8.78353C7.33458 8.78353 7.17057 8.78903 7.03613 8.80003V8.63503C7.21896 8.62403 7.35609 8.60203 7.4475 8.56903C7.53892 8.53603 7.59807 8.47003 7.62495 8.37103C7.65722 8.27203 7.67335 8.12353 7.67335 7.92553V3.83353C7.67335 3.63003 7.65722 3.48153 7.62495 3.38803C7.59807 3.28903 7.53623 3.22303 7.43943 3.19003C7.34802 3.15153 7.21359 3.12953 7.03613 3.12403V2.95903ZM12.8737 8.85778C12.6479 8.85778 12.4543 8.81378 12.293 8.72578C12.1317 8.63778 12.0107 8.51678 11.93 8.36278C11.8494 8.20878 11.809 8.03278 11.809 7.83478C11.809 7.59278 11.8628 7.39753 11.9703 7.24903C12.0779 7.09503 12.215 6.97128 12.3817 6.87778C12.5538 6.78428 12.7339 6.70728 12.9221 6.64678C13.1157 6.58078 13.2959 6.52028 13.4626 6.46528C13.6346 6.40478 13.7744 6.33603 13.882 6.25903C13.9949 6.18203 14.0514 6.08028 14.0514 5.95378V5.39278C14.0514 5.19478 14.0191 5.03803 13.9546 4.92253C13.8954 4.80153 13.8121 4.71628 13.7045 4.66678C13.6024 4.61728 13.4787 4.59253 13.3335 4.59253C13.2098 4.59253 13.0781 4.61178 12.9383 4.65028C12.7985 4.68328 12.6882 4.75203 12.6076 4.85653C12.7259 4.88953 12.8227 4.95553 12.8979 5.05453C12.9786 5.14803 13.0189 5.26628 13.0189 5.40928C13.0189 5.56328 12.9678 5.68428 12.8657 5.77228C12.7689 5.86028 12.6452 5.90428 12.4946 5.90428C12.3279 5.90428 12.2043 5.85203 12.1236 5.74753C12.0429 5.63753 12.0026 5.51103 12.0026 5.36803C12.0026 5.21953 12.0376 5.09853 12.1075 5.00503C12.1827 4.91153 12.2795 4.82353 12.3978 4.74103C12.5269 4.65303 12.6909 4.57878 12.8899 4.51828C13.0942 4.45778 13.3201 4.42753 13.5674 4.42753C13.7986 4.42753 13.9976 4.45503 14.1643 4.51003C14.3364 4.55953 14.4789 4.64203 14.5918 4.75753C14.7262 4.88403 14.815 5.04353 14.858 5.23603C14.901 5.42303 14.9225 5.65128 14.9225 5.92078V8.19778C14.9225 8.33528 14.9386 8.43428 14.9709 8.49478C15.0086 8.54978 15.0677 8.57728 15.1484 8.57728C15.2021 8.57728 15.2532 8.56353 15.3016 8.53603C15.3554 8.50853 15.4172 8.46728 15.4871 8.41228L15.5678 8.55253C15.4549 8.64603 15.3393 8.72028 15.221 8.77528C15.108 8.83028 14.9628 8.85778 14.7854 8.85778C14.6133 8.85778 14.4735 8.83028 14.366 8.77528C14.2584 8.72028 14.1777 8.64053 14.124 8.53603C14.0756 8.43153 14.0514 8.30228 14.0514 8.14828C13.9116 8.37928 13.7449 8.55528 13.5513 8.67628C13.3577 8.79728 13.1319 8.85778 12.8737 8.85778ZM13.2609 8.46178C13.4115 8.46178 13.5513 8.41778 13.6803 8.32978C13.8148 8.24178 13.9385 8.10978 14.0514 7.93378V6.29203C13.9922 6.38003 13.9062 6.45703 13.7933 6.52303C13.6803 6.58353 13.5594 6.64678 13.4303 6.71278C13.3012 6.77878 13.1776 6.85578 13.0593 6.94378C12.9463 7.02628 12.8522 7.13353 12.7769 7.26553C12.7017 7.39753 12.664 7.56528 12.664 7.76878C12.664 7.98328 12.7178 8.15378 12.8253 8.28028C12.9329 8.40128 13.0781 8.46178 13.2609 8.46178ZM17.4234 4.54303V4.71628C17.2943 4.71628 17.1787 4.72728 17.0765 4.74928C16.9797 4.76578 16.9152 4.81528 16.8829 4.89778C16.8561 4.98028 16.8776 5.12603 16.9475 5.33503L17.7621 7.79353L17.6895 7.82653L18.7946 4.51828L18.9559 4.59253L17.5605 8.83303C17.5175 8.83303 17.4744 8.83303 17.4314 8.83303C17.3884 8.83303 17.3427 8.83303 17.2943 8.83303L15.9876 5.17828C15.9016 4.95828 15.8155 4.82628 15.7295 4.78228C15.6488 4.73828 15.5789 4.71628 15.5198 4.71628V4.54303C15.6488 4.55953 15.7806 4.57328 15.915 4.58428C16.0548 4.58978 16.2081 4.59253 16.3748 4.59253C16.5415 4.59253 16.7162 4.58703 16.8991 4.57603C17.0873 4.56503 17.262 4.55403 17.4234 4.54303ZM21.779 4.54303V4.70803C21.6769 4.72453 21.5801 4.77678 21.4886 4.86478C21.3972 4.95278 21.3166 5.10953 21.2467 5.33503L20.1094 8.83303C20.0663 8.83303 20.0206 8.83303 19.9722 8.83303C19.9292 8.83303 19.8862 8.83303 19.8432 8.83303L18.5929 5.52478L18.7946 4.51828C18.8484 4.52378 18.8994 4.52653 18.9478 4.52653C19.0016 4.52103 19.0554 4.51828 19.1092 4.51828L20.3191 7.90078L20.2465 7.90903L20.9563 5.66503C21.0262 5.43953 21.0531 5.26078 21.0369 5.12878C21.0208 4.99678 20.9644 4.89778 20.8676 4.83178C20.7708 4.76578 20.6256 4.72453 20.432 4.70803V4.54303C20.5288 4.54853 20.6148 4.55403 20.6901 4.55953C20.7708 4.55953 20.8487 4.56228 20.924 4.56778C21.0047 4.56778 21.0853 4.56778 21.166 4.56778C21.2843 4.56778 21.3945 4.56503 21.4967 4.55953C21.6043 4.55403 21.6984 4.54853 21.779 4.54303ZM23.4453 4.42753C23.6604 4.42753 23.8459 4.46328 24.0018 4.53478C24.1632 4.60078 24.2788 4.66128 24.3487 4.71628C24.5261 4.85928 24.6364 4.76578 24.6794 4.43578H24.8568C24.8461 4.58978 24.838 4.77678 24.8326 4.99678C24.8273 5.21128 24.8246 5.49728 24.8246 5.85478H24.6471C24.6149 5.65128 24.5584 5.45328 24.4777 5.26078C24.4024 5.06828 24.2895 4.90878 24.139 4.78228C23.9938 4.65578 23.8029 4.59253 23.5663 4.59253C23.3888 4.59253 23.2409 4.64478 23.1226 4.74928C23.0043 4.84828 22.9452 4.99678 22.9452 5.19478C22.9452 5.35978 22.9936 5.50278 23.0904 5.62378C23.1872 5.74478 23.3108 5.85753 23.4614 5.96203C23.6174 6.06653 23.7841 6.17928 23.9615 6.30028C24.1605 6.43778 24.3379 6.57528 24.4939 6.71278C24.6552 6.84478 24.7816 6.99328 24.873 7.15828C24.9698 7.32328 25.0182 7.51578 25.0182 7.73578C25.0182 7.98878 24.9509 8.20328 24.8165 8.37928C24.6874 8.55528 24.5154 8.69003 24.3003 8.78353C24.0852 8.87153 23.8486 8.91553 23.5905 8.91553C23.4614 8.91553 23.3404 8.90178 23.2275 8.87428C23.1146 8.85228 23.0097 8.82203 22.9129 8.78353C22.8538 8.75053 22.7946 8.71753 22.7355 8.68453C22.6817 8.64603 22.6279 8.61028 22.5741 8.57728C22.5204 8.53878 22.472 8.54428 22.429 8.59378C22.3859 8.64328 22.3537 8.73128 22.3322 8.85778H22.1547C22.1655 8.68178 22.1735 8.46728 22.1789 8.21428C22.1843 7.96128 22.187 7.62578 22.187 7.20778H22.3644C22.4021 7.51028 22.4585 7.77703 22.5338 8.00803C22.6091 8.23903 22.7193 8.42053 22.8645 8.55253C23.0151 8.67903 23.2194 8.74228 23.4775 8.74228C23.5797 8.74228 23.6819 8.72028 23.7841 8.67628C23.8862 8.62678 23.9696 8.54978 24.0341 8.44528C24.104 8.34078 24.139 8.20053 24.139 8.02453C24.139 7.78253 24.0556 7.58453 23.8889 7.43053C23.7276 7.27103 23.5179 7.10328 23.2598 6.92728C23.0769 6.79528 22.9022 6.66603 22.7355 6.53953C22.5741 6.40753 22.4424 6.26178 22.3402 6.10228C22.2381 5.93728 22.187 5.74203 22.187 5.51653C22.187 5.26903 22.2434 5.06553 22.3564 4.90603C22.4747 4.74653 22.6306 4.62828 22.8242 4.55128C23.0178 4.46878 23.2248 4.42753 23.4453 4.42753ZM25.6179 2.95903C25.7416 2.96453 25.9003 2.97003 26.0938 2.97553C26.2928 2.98103 26.4891 2.98378 26.6827 2.98378C26.9407 2.98378 27.1854 2.98103 27.4166 2.97553C27.6532 2.97003 27.8199 2.96728 27.9167 2.96728C28.5996 2.96728 29.1105 3.11853 29.4492 3.42103C29.788 3.72353 29.9574 4.11403 29.9574 4.59253C29.9574 4.79053 29.9224 4.99953 29.8525 5.21953C29.788 5.43403 29.6724 5.63478 29.5057 5.82178C29.339 6.00328 29.1131 6.15178 28.8281 6.26728C28.5431 6.38278 28.1802 6.44053 27.7392 6.44053H26.9488V6.27553H27.6586C28.0189 6.27553 28.2931 6.20128 28.4813 6.05278C28.6749 5.90428 28.804 5.70903 28.8685 5.46703C28.9384 5.22503 28.9733 4.96378 28.9733 4.68328C28.9733 4.16078 28.8819 3.77028 28.6991 3.51178C28.5163 3.25328 28.199 3.12403 27.7473 3.12403C27.5161 3.12403 27.3628 3.17078 27.2875 3.26428C27.2176 3.35778 27.1827 3.54753 27.1827 3.83353V7.90903C27.1827 8.11253 27.2042 8.26653 27.2472 8.37103C27.2902 8.47003 27.3709 8.53603 27.4892 8.56903C27.6075 8.60203 27.7823 8.62128 28.0135 8.62678V8.80003C27.8683 8.78903 27.6801 8.78353 27.4489 8.78353C27.2176 8.77803 26.9783 8.77528 26.7311 8.77528C26.516 8.77528 26.3089 8.77803 26.11 8.78353C25.9164 8.78353 25.7524 8.78903 25.6179 8.80003V8.63503C25.8008 8.62403 25.9379 8.60203 26.0293 8.56903C26.1207 8.53603 26.1799 8.47003 26.2068 8.37103C26.239 8.27203 26.2552 8.12353 26.2552 7.92553V3.83353C26.2552 3.63003 26.239 3.48153 26.2068 3.38803C26.1799 3.28903 26.118 3.22303 26.0212 3.19003C25.9298 3.15153 25.7954 3.12953 25.6179 3.12403V2.95903ZM31.4555 8.85778C31.2297 8.85778 31.0361 8.81378 30.8748 8.72578C30.7135 8.63778 30.5925 8.51678 30.5118 8.36278C30.4311 8.20878 30.3908 8.03278 30.3908 7.83478C30.3908 7.59278 30.4446 7.39753 30.5521 7.24903C30.6597 7.09503 30.7968 6.97128 30.9635 6.87778C31.1356 6.78428 31.3157 6.70728 31.5039 6.64678C31.6975 6.58078 31.8776 6.52028 32.0443 6.46528C32.2164 6.40478 32.3562 6.33603 32.4638 6.25903C32.5767 6.18203 32.6332 6.08028 32.6332 5.95378V5.39278C32.6332 5.19478 32.6009 5.03803 32.5364 4.92253C32.4772 4.80153 32.3939 4.71628 32.2863 4.66678C32.1842 4.61728 32.0605 4.59253 31.9153 4.59253C31.7916 4.59253 31.6599 4.61178 31.5201 4.65028C31.3802 4.68328 31.27 4.75203 31.1893 4.85653C31.3076 4.88953 31.4044 4.95553 31.4797 5.05453C31.5604 5.14803 31.6007 5.26628 31.6007 5.40928C31.6007 5.56328 31.5496 5.68428 31.4475 5.77228C31.3507 5.86028 31.227 5.90428 31.0764 5.90428C30.9097 5.90428 30.786 5.85203 30.7054 5.74753C30.6247 5.63753 30.5844 5.51103 30.5844 5.36803C30.5844 5.21953 30.6193 5.09853 30.6893 5.00503C30.7645 4.91153 30.8613 4.82353 30.9796 4.74103C31.1087 4.65303 31.2727 4.57878 31.4717 4.51828C31.676 4.45778 31.9018 4.42753 32.1492 4.42753C32.3804 4.42753 32.5794 4.45503 32.7461 4.51003C32.9182 4.55953 33.0607 4.64203 33.1736 4.75753C33.308 4.88403 33.3968 5.04353 33.4398 5.23603C33.4828 5.42303 33.5043 5.65128 33.5043 5.92078V8.19778C33.5043 8.33528 33.5204 8.43428 33.5527 8.49478C33.5903 8.54978 33.6495 8.57728 33.7301 8.57728C33.7839 8.57728 33.835 8.56353 33.8834 8.53603C33.9372 8.50853 33.999 8.46728 34.0689 8.41228L34.1496 8.55253C34.0367 8.64603 33.921 8.72028 33.8027 8.77528C33.6898 8.83028 33.5446 8.85778 33.3672 8.85778C33.1951 8.85778 33.0553 8.83028 32.9477 8.77528C32.8402 8.72028 32.7595 8.64053 32.7058 8.53603C32.6574 8.43153 32.6332 8.30228 32.6332 8.14828C32.4934 8.37928 32.3267 8.55528 32.1331 8.67628C31.9395 8.79728 31.7136 8.85778 31.4555 8.85778ZM31.8427 8.46178C31.9933 8.46178 32.1331 8.41778 32.2621 8.32978C32.3966 8.24178 32.5202 8.10978 32.6332 7.93378V6.29203C32.574 6.38003 32.488 6.45703 32.3751 6.52303C32.2621 6.58353 32.1411 6.64678 32.0121 6.71278C31.883 6.77878 31.7593 6.85578 31.641 6.94378C31.5281 7.02628 31.434 7.13353 31.3587 7.26553C31.2835 7.39753 31.2458 7.56528 31.2458 7.76878C31.2458 7.98328 31.2996 8.15378 31.4071 8.28028C31.5147 8.40128 31.6599 8.46178 31.8427 8.46178ZM36.988 4.42753C37.144 4.42753 37.2757 4.46053 37.3833 4.52653C37.4962 4.59253 37.5795 4.67778 37.6333 4.78228C37.6925 4.88128 37.722 4.99403 37.722 5.12053C37.722 5.28003 37.6736 5.41753 37.5768 5.53303C37.4854 5.64303 37.3617 5.69803 37.2058 5.69803C37.0714 5.69803 36.9558 5.65678 36.859 5.57428C36.7675 5.49178 36.7218 5.37903 36.7218 5.23603C36.7218 5.11503 36.7514 5.01328 36.8106 4.93078C36.8751 4.84278 36.9477 4.77403 37.0284 4.72453C36.9746 4.68053 36.9101 4.66128 36.8348 4.66678C36.6896 4.67228 36.5551 4.72178 36.4315 4.81528C36.3078 4.90328 36.2029 5.01878 36.1169 5.16178C36.0309 5.29928 35.9636 5.44778 35.9152 5.60728C35.8668 5.76678 35.8426 5.91528 35.8426 6.05278V7.95028C35.8426 8.21978 35.9152 8.40128 36.0604 8.49478C36.2056 8.58278 36.4073 8.62678 36.6654 8.62678V8.80003C36.5417 8.79453 36.3642 8.78903 36.133 8.78353C35.9072 8.77253 35.6679 8.76703 35.4151 8.76703C35.2216 8.76703 35.028 8.77253 34.8344 8.78353C34.6408 8.78903 34.4929 8.79453 34.3908 8.80003V8.62678C34.6005 8.62678 34.7484 8.58553 34.8344 8.50303C34.9258 8.42053 34.9715 8.26378 34.9715 8.03278V5.44228C34.9715 5.19478 34.9312 5.01328 34.8505 4.89778C34.7699 4.77678 34.6166 4.71628 34.3908 4.71628V4.54303C34.5628 4.55953 34.7295 4.56778 34.8909 4.56778C35.0737 4.56778 35.2431 4.55953 35.399 4.54303C35.5603 4.52103 35.7082 4.49078 35.8426 4.45228V5.40103C35.9072 5.24153 35.9932 5.08753 36.1008 4.93903C36.2083 4.79053 36.3374 4.66953 36.4879 4.57603C36.6385 4.47703 36.8052 4.42753 36.988 4.42753ZM39.175 8.85778C38.9491 8.85778 38.7556 8.81378 38.5942 8.72578C38.4329 8.63778 38.3119 8.51678 38.2313 8.36278C38.1506 8.20878 38.1103 8.03278 38.1103 7.83478C38.1103 7.59278 38.164 7.39753 38.2716 7.24903C38.3791 7.09503 38.5163 6.97128 38.683 6.87778C38.855 6.78428 39.0352 6.70728 39.2234 6.64678C39.417 6.58078 39.5971 6.52028 39.7638 6.46528C39.9359 6.40478 40.0757 6.33603 40.1832 6.25903C40.2962 6.18203 40.3526 6.08028 40.3526 5.95378V5.39278C40.3526 5.19478 40.3204 5.03803 40.2558 4.92253C40.1967 4.80153 40.1133 4.71628 40.0058 4.66678C39.9036 4.61728 39.7799 4.59253 39.6348 4.59253C39.5111 4.59253 39.3793 4.61178 39.2395 4.65028C39.0997 4.68328 38.9895 4.75203 38.9088 4.85653C39.0271 4.88953 39.1239 4.95553 39.1992 5.05453C39.2799 5.14803 39.3202 5.26628 39.3202 5.40928C39.3202 5.56328 39.2691 5.68428 39.1669 5.77228C39.0701 5.86028 38.9465 5.90428 38.7959 5.90428C38.6292 5.90428 38.5055 5.85203 38.4249 5.74753C38.3442 5.63753 38.3039 5.51103 38.3039 5.36803C38.3039 5.21953 38.3388 5.09853 38.4087 5.00503C38.484 4.91153 38.5808 4.82353 38.6991 4.74103C38.8282 4.65303 38.9922 4.57878 39.1911 4.51828C39.3955 4.45778 39.6213 4.42753 39.8687 4.42753C40.0999 4.42753 40.2989 4.45503 40.4656 4.51003C40.6376 4.55953 40.7801 4.64203 40.8931 4.75753C41.0275 4.88403 41.1162 5.04353 41.1592 5.23603C41.2023 5.42303 41.2238 5.65128 41.2238 5.92078V8.19778C41.2238 8.33528 41.2399 8.43428 41.2722 8.49478C41.3098 8.54978 41.369 8.57728 41.4496 8.57728C41.5034 8.57728 41.5545 8.56353 41.6029 8.53603C41.6566 8.50853 41.7185 8.46728 41.7884 8.41228L41.8691 8.55253C41.7561 8.64603 41.6405 8.72028 41.5222 8.77528C41.4093 8.83028 41.2641 8.85778 41.0866 8.85778C40.9146 8.85778 40.7748 8.83028 40.6672 8.77528C40.5597 8.72028 40.479 8.64053 40.4252 8.53603C40.3768 8.43153 40.3526 8.30228 40.3526 8.14828C40.2128 8.37928 40.0461 8.55528 39.8525 8.67628C39.659 8.79728 39.4331 8.85778 39.175 8.85778ZM39.5622 8.46178C39.7127 8.46178 39.8525 8.41778 39.9816 8.32978C40.116 8.24178 40.2397 8.10978 40.3526 7.93378V6.29203C40.2935 6.38003 40.2074 6.45703 40.0945 6.52303C39.9816 6.58353 39.8606 6.64678 39.7316 6.71278C39.6025 6.77878 39.4788 6.85578 39.3605 6.94378C39.2476 7.02628 39.1535 7.13353 39.0782 7.26553C39.0029 7.39753 38.9653 7.56528 38.9653 7.76878C38.9653 7.98328 39.0191 8.15378 39.1266 8.28028C39.2341 8.40128 39.3793 8.46178 39.5622 8.46178ZM45.8851 2.33203V7.90078C45.8851 8.14828 45.9255 8.33253 46.0061 8.45353C46.0922 8.56903 46.2454 8.62678 46.4659 8.62678V8.80003C46.2992 8.78353 46.1325 8.77528 45.9658 8.77528C45.783 8.77528 45.6109 8.78353 45.4496 8.80003C45.2936 8.81653 45.1484 8.84678 45.014 8.89078V3.32203C45.014 3.07453 44.971 2.89303 44.8849 2.77753C44.8043 2.65653 44.6537 2.59603 44.4332 2.59603V2.42278C44.6053 2.43928 44.772 2.44753 44.9333 2.44753C45.1108 2.44753 45.2802 2.43928 45.4415 2.42278C45.6028 2.40078 45.7507 2.37053 45.8851 2.33203ZM44.0703 4.42753C44.3069 4.42753 44.522 4.47978 44.7156 4.58428C44.9145 4.68878 45.0543 4.86478 45.135 5.11228L45.0382 5.20303C44.9629 5.00503 44.8527 4.86203 44.7075 4.77403C44.5623 4.68053 44.3983 4.63378 44.2155 4.63378C43.909 4.63378 43.6589 4.80153 43.4653 5.13703C43.2717 5.46703 43.1776 5.97853 43.183 6.67153C43.183 7.12803 43.2207 7.50203 43.2959 7.79353C43.3712 8.07953 43.4815 8.29128 43.6266 8.42878C43.7772 8.56628 43.9573 8.63503 44.1671 8.63503C44.3768 8.63503 44.565 8.54428 44.7317 8.36278C44.9038 8.18128 45.0059 7.92003 45.0382 7.57903L45.1108 7.75228C45.057 8.12628 44.928 8.41503 44.7236 8.61853C44.5193 8.81653 44.245 8.91553 43.9009 8.91553C43.5729 8.91553 43.2825 8.83578 43.0298 8.67628C42.7824 8.51128 42.5915 8.26378 42.4571 7.93378C42.3226 7.59828 42.2554 7.17753 42.2554 6.67153C42.2554 6.17103 42.3361 5.75578 42.4974 5.42578C42.6641 5.09028 42.8846 4.84003 43.1588 4.67503C43.4331 4.51003 43.7369 4.42753 44.0703 4.42753ZM47.8121 2.46403C47.9788 2.46403 48.1186 2.51903 48.2315 2.62903C48.3445 2.73353 48.4009 2.86553 48.4009 3.02503C48.4009 3.18453 48.3445 3.31928 48.2315 3.42928C48.1186 3.53378 47.9788 3.58603 47.8121 3.58603C47.6454 3.58603 47.5056 3.53378 47.3927 3.42928C47.2798 3.31928 47.2233 3.18453 47.2233 3.02503C47.2233 2.86553 47.2798 2.73353 47.3927 2.62903C47.5056 2.51903 47.6454 2.46403 47.8121 2.46403ZM48.2961 4.45228V8.03278C48.2961 8.26378 48.3391 8.42053 48.4251 8.50303C48.5165 8.58553 48.6671 8.62678 48.8768 8.62678V8.80003C48.7854 8.79453 48.6429 8.78903 48.4493 8.78353C48.2611 8.77253 48.0675 8.76703 47.8686 8.76703C47.6804 8.76703 47.4868 8.77253 47.2878 8.78353C47.0889 8.78903 46.941 8.79453 46.8442 8.80003V8.62678C47.0539 8.62678 47.2018 8.58553 47.2878 8.50303C47.3792 8.42053 47.4249 8.26378 47.4249 8.03278V5.44228C47.4249 5.19478 47.3846 5.01328 47.3039 4.89778C47.2233 4.77678 47.07 4.71628 46.8442 4.71628V4.54303C47.0163 4.55953 47.183 4.56778 47.3443 4.56778C47.5271 4.56778 47.6965 4.55953 47.8524 4.54303C48.0138 4.52103 48.1616 4.49078 48.2961 4.45228ZM50.7627 4.42753C50.9778 4.42753 51.1633 4.46328 51.3192 4.53478C51.4805 4.60078 51.5962 4.66128 51.6661 4.71628C51.8435 4.85928 51.9537 4.76578 51.9968 4.43578H52.1742C52.1635 4.58978 52.1554 4.77678 52.15 4.99678C52.1446 5.21128 52.142 5.49728 52.142 5.85478H51.9645C51.9322 5.65128 51.8758 5.45328 51.7951 5.26078C51.7198 5.06828 51.6069 4.90878 51.4563 4.78228C51.3112 4.65578 51.1203 4.59253 50.8837 4.59253C50.7062 4.59253 50.5583 4.64478 50.44 4.74928C50.3217 4.84828 50.2626 4.99678 50.2626 5.19478C50.2626 5.35978 50.311 5.50278 50.4078 5.62378C50.5045 5.74478 50.6282 5.85753 50.7788 5.96203C50.9347 6.06653 51.1014 6.17928 51.2789 6.30028C51.4779 6.43778 51.6553 6.57528 51.8112 6.71278C51.9726 6.84478 52.0989 6.99328 52.1904 7.15828C52.2871 7.32328 52.3355 7.51578 52.3355 7.73578C52.3355 7.98878 52.2683 8.20328 52.1339 8.37928C52.0048 8.55528 51.8328 8.69003 51.6177 8.78353C51.4026 8.87153 51.166 8.91553 50.9079 8.91553C50.7788 8.91553 50.6578 8.90178 50.5449 8.87428C50.432 8.85228 50.3271 8.82203 50.2303 8.78353C50.1712 8.75053 50.112 8.71753 50.0529 8.68453C49.9991 8.64603 49.9453 8.61028 49.8915 8.57728C49.8378 8.53878 49.7894 8.54428 49.7463 8.59378C49.7033 8.64328 49.6711 8.73128 49.6496 8.85778H49.4721C49.4829 8.68178 49.4909 8.46728 49.4963 8.21428C49.5017 7.96128 49.5044 7.62578 49.5044 7.20778H49.6818C49.7195 7.51028 49.7759 7.77703 49.8512 8.00803C49.9265 8.23903 50.0367 8.42053 50.1819 8.55253C50.3325 8.67903 50.5368 8.74228 50.7949 8.74228C50.8971 8.74228 50.9993 8.72028 51.1014 8.67628C51.2036 8.62678 51.287 8.54978 51.3515 8.44528C51.4214 8.34078 51.4563 8.20053 51.4563 8.02453C51.4563 7.78253 51.373 7.58453 51.2063 7.43053C51.045 7.27103 50.8353 7.10328 50.5771 6.92728C50.3943 6.79528 50.2196 6.66603 50.0529 6.53953C49.8915 6.40753 49.7598 6.26178 49.6576 6.10228C49.5554 5.93728 49.5044 5.74203 49.5044 5.51653C49.5044 5.26903 49.5608 5.06553 49.6737 4.90603C49.7921 4.74653 49.948 4.62828 50.1416 4.55128C50.3352 4.46878 50.5422 4.42753 50.7627 4.42753ZM54.91 4.42753C55.3832 4.42753 55.7542 4.57328 56.0231 4.86478C56.2919 5.15628 56.4264 5.61828 56.4264 6.25078H53.6436L53.6275 6.09403H55.5714C55.5767 5.82453 55.5552 5.57703 55.5068 5.35153C55.4584 5.12053 55.3832 4.93628 55.281 4.79878C55.1788 4.66128 55.0444 4.59253 54.8777 4.59253C54.6465 4.59253 54.4448 4.71903 54.2727 4.97203C54.106 5.21953 54.0039 5.61828 53.9662 6.16828L53.9904 6.20953C53.985 6.28653 53.9797 6.37178 53.9743 6.46528C53.9689 6.55328 53.9662 6.64128 53.9662 6.72928C53.9662 7.10878 54.0227 7.42778 54.1356 7.68628C54.2485 7.94478 54.3964 8.14003 54.5792 8.27203C54.7621 8.39853 54.9476 8.46178 55.1358 8.46178C55.281 8.46178 55.4208 8.43978 55.5552 8.39578C55.695 8.34628 55.8268 8.26653 55.9505 8.15653C56.0742 8.04103 56.1844 7.88428 56.2812 7.68628L56.4425 7.75228C56.378 7.93928 56.2785 8.12353 56.1441 8.30503C56.0096 8.48653 55.8375 8.63503 55.6278 8.75053C55.4181 8.86053 55.1734 8.91553 54.8938 8.91553C54.5174 8.91553 54.1894 8.83028 53.9098 8.65978C53.6301 8.48378 53.415 8.23353 53.2645 7.90903C53.1139 7.58453 53.0386 7.19953 53.0386 6.75403C53.0386 6.26453 53.1166 5.84653 53.2725 5.50003C53.4285 5.15353 53.6463 4.88953 53.9259 4.70803C54.2109 4.52103 54.5389 4.42753 54.91 4.42753Z" fill="white"/>
</svg>
