<svg width="17" height="16" viewBox="0 0 17 16" fill="none" xmlns="http://www.w3.org/2000/svg">
<path d="M7.99919 3.58415V3.60481C7.99945 4.00905 7.93535 4.41031 7.80969 4.79093L7.81708 4.76626C7.69493 5.13714 7.48739 5.46808 7.21414 5.72768L7.21168 5.72968C6.95266 5.98237 6.60813 6.13639 6.23037 6.13639H6.20084H6.20207C5.70368 6.13329 5.22639 5.91801 4.87314 5.537C4.48724 5.15312 4.18701 4.67911 3.99519 4.15087L3.98719 4.12553C3.80128 3.6263 3.7034 3.09371 3.69864 2.55538V2.53205C3.69864 2.11601 3.76571 1.71664 3.88814 1.34593L3.88076 1.3706C4.00291 0.999717 4.21044 0.668784 4.48369 0.409179L4.48615 0.407179C4.76419 0.136091 5.12741 -0.00942722 5.5013 0.000474052H5.49946C5.99799 0.00278322 6.47555 0.218178 6.82838 0.599864C7.21044 0.983712 7.50814 1.45557 7.69957 1.98066L7.70756 2.006C7.88537 2.47271 7.99057 3.01476 7.99611 3.58215V3.58415H7.99919ZM4.71072 8.61662L4.71133 8.67263C4.71207 9.174 4.56911 9.66324 4.3022 10.0728L4.30712 10.0648C4.18541 10.2548 4.02308 10.41 3.83399 10.5173C3.64489 10.6246 3.43465 10.6807 3.22122 10.6808L3.16031 10.6795H3.16338C2.6591 10.6735 2.17439 10.4671 1.80124 10.0994L1.80308 10.1014C1.40611 9.73296 1.08503 9.27819 0.860653 8.76661C0.636276 8.25503 0.513612 7.69806 0.500615 7.13181V7.12648L0.5 7.07181C0.5 6.54843 0.65135 6.06305 0.909136 5.66501L0.904214 5.67301C1.03085 5.4724 1.20265 5.31015 1.40334 5.20164C1.60403 5.09313 1.82697 5.04195 2.05103 5.05295H2.04795C2.55223 5.05896 3.03694 5.26537 3.4101 5.63301L3.40825 5.63101C3.80584 6.00166 4.1272 6.45862 4.35156 6.97234C4.57592 7.48606 4.69828 8.0451 4.71072 8.61329V8.61795V8.61662ZM8.50123 8.33526C9.39947 8.38839 10.2597 8.74539 10.961 9.35602L10.9524 9.34869C11.8107 10.0093 12.5503 10.8345 13.1346 11.7836L13.1543 11.8176C13.681 12.5844 13.9888 13.5016 14.0396 14.4558L14.0403 14.4692L14.0415 14.5272C14.0415 14.7965 13.9806 15.0512 13.8729 15.2746L13.8766 15.2659C13.7733 15.4707 13.612 15.6341 13.4164 15.732L13.4102 15.7346C13.2312 15.8273 13.0226 15.9 12.8048 15.9406L12.7901 15.9426C12.563 15.9815 12.3334 16.0006 12.1035 16H12.0573H12.0598C11.4259 15.9545 10.8039 15.7908 10.2214 15.5159L10.2571 15.5313C9.70702 15.2713 9.12054 15.1133 8.52214 15.0639L8.50307 15.0626C7.82446 15.1172 7.19568 15.2826 6.6112 15.5419L6.65242 15.5259C6.04295 15.7912 5.39778 15.9475 4.7421 15.9887L4.72487 15.9893C3.54935 15.9902 2.96158 15.4837 2.96158 14.4698C2.98823 13.7594 3.17677 13.0672 3.51038 12.455L3.49992 12.475C3.85986 11.7414 4.31208 11.0655 4.84361 10.4668L4.84115 10.4695C5.36068 9.88143 5.95481 9.37654 6.60566 8.96999L6.64381 8.94799C7.19968 8.57212 7.83663 8.36042 8.49138 8.33393H8.49877L8.50123 8.33526ZM10.7992 6.13705H10.7709C10.408 6.13748 10.058 5.99209 9.78831 5.72902L9.78954 5.73035C9.51846 5.47459 9.31183 5.14834 9.18907 4.78226L9.18414 4.76626C9.06208 4.39337 9.00027 4.00047 9.00142 3.60481V3.58281V3.58415C9.00695 3.01409 9.11216 2.47271 9.29981 1.97666L9.28997 2.006C9.4806 1.47204 9.78058 0.991934 10.1673 0.601864L10.1698 0.599864C10.5227 0.218829 10.9999 0.003736 11.4981 0.00114078H11.527C11.9047 0.00114078 12.2493 0.155822 12.5095 0.409179L12.5083 0.407846C12.7778 0.663203 12.9857 0.987234 13.1088 1.35594L13.1137 1.37194C13.2312 1.71997 13.2989 2.12201 13.2989 2.54071V2.55405C13.2936 3.10371 13.1923 3.64666 13.0005 4.15553L13.0103 4.1262C12.8195 4.66307 12.5172 5.14512 12.1268 5.535L12.1244 5.53766C11.771 5.91772 11.294 6.13224 10.7961 6.13505L10.7992 6.13705ZM14.952 5.05428L15.0086 5.05295C15.4584 5.05295 15.8552 5.29697 16.0927 5.66968L16.0958 5.67434C16.3601 6.0847 16.5012 6.57338 16.5 7.07381L16.4994 7.13115V7.12848C16.4873 7.69438 16.3655 8.25119 16.1419 8.76278C15.9184 9.27438 15.5981 9.72932 15.2018 10.0981L15.1969 10.1028C14.8243 10.469 14.3408 10.6747 13.8378 10.6808H13.8366C13.6144 10.6916 13.3933 10.6414 13.1939 10.5347C12.9945 10.428 12.8232 10.2684 12.6959 10.0708L12.6929 10.0661C12.418 9.64202 12.2765 9.13331 12.2893 8.61529V8.61795C12.3011 8.05006 12.4226 7.49116 12.6461 6.97735C12.8696 6.46354 13.1901 6.00625 13.5868 5.63501L13.5917 5.63034C13.9639 5.26522 14.4464 5.06012 14.9484 5.05362H14.9496L14.952 5.05428Z" fill="#625E5E"/>
</svg>
