<svg width="15" height="16" viewBox="0 0 15 16" fill="none" xmlns="http://www.w3.org/2000/svg">
<path d="M7.03049 3.86014V3.87951C7.03074 4.25849 6.97064 4.63467 6.85284 4.99149L6.85976 4.96837C6.74524 5.31607 6.55068 5.62632 6.29451 5.8697L6.2922 5.87158C6.04937 6.10847 5.72637 6.25286 5.37222 6.25286H5.34453H5.34569C4.87845 6.24996 4.43099 6.04814 4.09982 5.69093C3.73803 5.33105 3.45657 4.88667 3.27674 4.39144L3.26924 4.36768C3.09495 3.89965 3.00319 3.40035 2.99873 2.89567V2.87379C2.99873 2.48376 3.0616 2.10935 3.17638 1.76181L3.16946 1.78494C3.28398 1.43723 3.47854 1.12699 3.73471 0.883606L3.73702 0.88173C3.99768 0.627585 4.3382 0.491162 4.68872 0.500444H4.68699C5.15437 0.502609 5.60208 0.704542 5.93286 1.06237C6.29103 1.42223 6.57013 1.86459 6.74959 2.35687L6.75709 2.38062C6.92378 2.81816 7.02241 3.32634 7.0276 3.85826V3.86014H7.03049ZM3.94755 8.57808L3.94812 8.63059C3.94882 9.10062 3.81479 9.55929 3.56456 9.94321L3.56917 9.93571C3.45507 10.1138 3.30289 10.2594 3.12561 10.36C2.94834 10.4606 2.75124 10.5131 2.55114 10.5133L2.49404 10.512H2.49692C2.02416 10.5064 1.56974 10.3129 1.21991 9.96821L1.22164 9.97009C0.849481 9.62465 0.548466 9.1983 0.338112 8.7187C0.127759 8.23909 0.0127616 7.71693 0.00057679 7.18608V7.18108L0 7.12982C0 6.63915 0.14189 6.18411 0.383565 5.81095L0.378951 5.81845C0.497668 5.63038 0.658732 5.47827 0.846882 5.37654C1.03503 5.27481 1.24403 5.22683 1.45409 5.23714H1.4512C1.92397 5.24278 2.37838 5.43628 2.72821 5.78094L2.72648 5.77907C3.09922 6.12656 3.4005 6.55496 3.61084 7.03657C3.82117 7.51818 3.93588 8.04228 3.94755 8.57496V8.57933V8.57808ZM7.50115 8.31431C8.34325 8.36412 9.14974 8.6988 9.80715 9.27127L9.79908 9.2644C10.6038 9.88373 11.2972 10.6574 11.845 11.5471L11.8634 11.579C12.3572 12.2978 12.6457 13.1577 12.6934 14.0523L12.694 14.0648L12.6951 14.1192C12.6951 14.3718 12.638 14.6105 12.5371 14.8199L12.5406 14.8118C12.4437 15.0038 12.2925 15.157 12.1091 15.2487L12.1034 15.2512C11.9355 15.3381 11.74 15.4062 11.5358 15.4444L11.5219 15.4462C11.309 15.4826 11.0938 15.5006 10.8783 15.5H10.835H10.8373C10.243 15.4574 9.65995 15.3038 9.11385 15.0462L9.14731 15.0606C8.63158 14.8169 8.08175 14.6688 7.52076 14.6224L7.50288 14.6212C6.86668 14.6724 6.2772 14.8274 5.72925 15.0706L5.7679 15.0556C5.19652 15.3043 4.59167 15.4508 3.97696 15.4894L3.96081 15.49C2.85876 15.4908 2.30774 15.016 2.30774 14.0655C2.33271 13.3995 2.50947 12.7505 2.82223 12.1765L2.81243 12.1953C3.14987 11.5076 3.57382 10.874 4.07213 10.3126L4.06983 10.3151C4.55689 9.76384 5.11388 9.2905 5.72406 8.90936L5.75982 8.88874C6.28095 8.53636 6.87809 8.33789 7.49192 8.31306H7.49884L7.50115 8.31431ZM9.65546 6.25349H9.62893C9.28878 6.25388 8.96058 6.11759 8.70779 5.87095L8.70895 5.8722C8.45481 5.63243 8.26109 5.32657 8.146 4.98337L8.14139 4.96837C8.02695 4.61878 7.969 4.25044 7.97008 3.87951V3.85889V3.86014C7.97527 3.32571 8.0739 2.81816 8.24982 2.35312L8.24059 2.38062C8.41931 1.88004 8.70054 1.42994 9.0631 1.06425L9.0654 1.06237C9.39627 0.705152 9.84365 0.503503 10.3107 0.501069H10.3378C10.692 0.501069 11.015 0.646083 11.2589 0.883606L11.2578 0.882356C11.5104 1.12175 11.7054 1.42553 11.8207 1.77119L11.8253 1.78619C11.9355 2.11247 11.999 2.48938 11.999 2.88192V2.89442C11.994 3.40973 11.899 3.91874 11.7192 4.39581L11.7284 4.36831C11.5496 4.87163 11.2662 5.32355 10.9002 5.68906L10.8979 5.69156C10.5665 6.04787 10.1194 6.24897 9.65258 6.25161L9.65546 6.25349ZM13.5488 5.23839L13.6019 5.23714C14.0235 5.23714 14.3955 5.46591 14.6182 5.81532L14.621 5.8197C14.8688 6.2044 15.0012 6.66254 15 7.1317L14.9994 7.18545V7.18295C14.9881 7.71348 14.8739 8.23549 14.6643 8.71511C14.4548 9.19473 14.1545 9.62124 13.783 9.96696L13.7784 9.97134C13.4291 10.3147 12.9758 10.5075 12.5042 10.5133H12.5031C12.2948 10.5234 12.0875 10.4763 11.9005 10.3763C11.7136 10.2763 11.553 10.1267 11.4337 9.94134L11.4308 9.93696C11.1732 9.5394 11.0405 9.06248 11.0524 8.57683V8.57933C11.0635 8.04693 11.1775 7.52297 11.387 7.04127C11.5965 6.55957 11.897 6.13086 12.2689 5.78282L12.2735 5.77844C12.6224 5.43615 13.0747 5.24386 13.5453 5.23777H13.5465L13.5488 5.23839Z" fill="#625E5E"/>
</svg>
