<svg width="10" height="10" viewBox="0 0 10 10" fill="none" xmlns="http://www.w3.org/2000/svg">
<g clip-path="url(#clip0_111_547)">
<path d="M3.84601 0.0722962C3.35039 0.0722457 2.85961 0.169822 2.4017 0.359453C1.94379 0.549084 1.52772 0.827055 1.17725 1.17749C0.826773 1.52793 0.548759 1.94398 0.359081 2.40187C0.169404 2.85975 0.0717774 3.35052 0.0717774 3.84614C0.0717268 4.3418 0.169316 4.8326 0.358971 5.29054C0.548626 5.74847 0.826631 6.16456 1.17711 6.51504C1.52759 6.86552 1.94368 7.14352 2.40161 7.33318C2.85955 7.52283 3.35035 7.62042 3.84601 7.62037C4.72678 7.62037 5.53562 7.30845 6.17793 6.80306L6.51447 7.1396C6.44536 7.27387 6.4209 7.42669 6.44462 7.57583C6.46835 7.72496 6.53903 7.86264 6.64639 7.96883L8.41332 9.74768C8.68755 10.0223 9.13639 10.0223 9.41101 9.74768L9.74755 9.41114C9.87931 9.27855 9.95326 9.09922 9.95326 8.9123C9.95326 8.72537 9.87931 8.54604 9.74755 8.41345L7.9687 6.64653C7.86176 6.53989 7.72325 6.47061 7.57379 6.44899C7.42432 6.42737 7.27186 6.45457 7.13909 6.52653L6.80255 6.18999C7.24306 5.63409 7.518 4.9653 7.59585 4.26031C7.67369 3.55531 7.55128 2.84265 7.24265 2.20404C6.93402 1.56543 6.45167 1.02671 5.85091 0.649672C5.25014 0.272631 4.55529 0.0725243 3.84601 0.0722962ZM3.84601 0.769219C4.66206 0.769219 5.44469 1.09339 6.02172 1.67043C6.59876 2.24746 6.92293 3.03009 6.92293 3.84614C6.92293 4.66219 6.59876 5.44482 6.02172 6.02186C5.44469 6.59889 4.66206 6.92307 3.84601 6.92307C3.02996 6.92307 2.24733 6.59889 1.6703 6.02186C1.09326 5.44482 0.769085 4.66219 0.769085 3.84614C0.769085 3.03009 1.09326 2.24746 1.6703 1.67043C2.24733 1.09339 3.02996 0.769219 3.84601 0.769219ZM1.8987 2.87268C1.69356 3.20495 1.58539 3.58795 1.58639 3.97845C1.58594 4.25481 1.64003 4.52854 1.74558 4.78395C1.85113 5.03936 2.00605 5.27142 2.20147 5.46684C2.39688 5.66225 2.62895 5.81718 2.88436 5.92272C3.13976 6.02827 3.4135 6.08237 3.68985 6.08191C4.12431 6.08102 4.54801 5.94676 4.9037 5.6973C4.80781 5.70618 4.71153 5.71003 4.61524 5.70883C4.25827 5.70975 3.90465 5.64012 3.57467 5.50395C3.2447 5.36778 2.94489 5.16775 2.69246 4.91535C2.44003 4.66296 2.23995 4.36317 2.10374 4.03322C1.96752 3.70326 1.89784 3.34965 1.8987 2.99268C1.8987 2.95268 1.89678 2.91268 1.8987 2.87268Z" fill="#545454"/>
</g>
<defs>
<clipPath id="clip0_111_547">
<rect width="10" height="10" fill="white"/>
</clipPath>
</defs>
</svg>
