<svg width="23" height="22" viewBox="0 0 23 22" fill="none" xmlns="http://www.w3.org/2000/svg">
<path d="M10.7801 4.9282V4.95662C10.7805 5.51245 10.6883 6.06418 10.5077 6.58752L10.5183 6.5536C10.3427 7.06357 10.0444 7.51861 9.65158 7.87556L9.64804 7.87831C9.2757 8.22576 8.78043 8.43753 8.2374 8.43753H8.19495H8.19672C7.48029 8.43327 6.79418 8.13727 6.28639 7.61337C5.73165 7.08554 5.30007 6.43378 5.02434 5.70744L5.01284 5.6726C4.74559 4.98616 4.60489 4.25385 4.59805 3.51365V3.48156C4.59805 2.90951 4.69445 2.36037 4.87045 1.85066L4.85984 1.88458C5.03543 1.37461 5.33376 0.919578 5.72656 0.562622L5.7301 0.559871C6.12977 0.187125 6.6519 -0.0129624 7.18938 0.000651822H7.18672C7.90337 0.00382692 8.58986 0.299995 9.09705 0.824813C9.64625 1.3526 10.0742 2.00141 10.3494 2.72341L10.3609 2.75825C10.6165 3.39997 10.7677 4.14529 10.7757 4.92545V4.9282H10.7801ZM6.05291 11.8479L6.05379 11.9249C6.05485 12.6142 5.84934 13.287 5.46566 13.85L5.47273 13.839C5.29778 14.1003 5.06443 14.3138 4.79261 14.4613C4.52079 14.6088 4.21857 14.6859 3.91175 14.6861L3.82419 14.6843H3.82861C3.10371 14.676 2.40694 14.3922 1.87053 13.8867L1.87318 13.8895C1.30254 13.3828 0.840982 12.7575 0.518439 12.0541C0.195897 11.3507 0.0195677 10.5848 0.000884411 9.80624V9.79891L0 9.72374C0 9.00409 0.217565 8.33669 0.588133 7.78939L0.581058 7.80039C0.76309 7.52455 1.01006 7.30146 1.29855 7.15226C1.58705 7.00306 1.90752 6.93268 2.2296 6.94781H2.22518C2.95009 6.95607 3.64685 7.23988 4.18326 7.74538L4.18061 7.74263C4.75214 8.25228 5.2141 8.88061 5.53662 9.58697C5.85913 10.2933 6.03502 11.062 6.05291 11.8433V11.8497V11.8479ZM11.5018 11.461C12.793 11.534 14.0296 12.0249 15.0376 12.8645L15.0253 12.8545C16.2591 13.7628 17.3223 14.8975 18.1623 16.2024L18.1906 16.2492C18.9476 17.3035 19.3901 18.5647 19.4632 19.8768L19.4641 19.8951L19.4659 19.9749C19.4659 20.3452 19.3783 20.6954 19.2236 21.0026L19.2289 20.9906C19.0804 21.2723 18.8484 21.4969 18.5673 21.6314L18.5585 21.6351C18.3011 21.7625 18.0013 21.8625 17.6882 21.9184L17.667 21.9211C17.3405 21.9745 17.0105 22.0009 16.68 22H16.6137H16.6172C15.7059 21.9374 14.8119 21.7123 13.9746 21.3344L14.0259 21.3555C13.2351 20.9981 12.392 20.7808 11.5318 20.7129L11.5044 20.711C10.5289 20.7862 9.62504 21.0136 8.78485 21.3702L8.84411 21.3482C7.968 21.7129 7.04056 21.9278 6.09801 21.9844L6.07325 21.9853C4.38343 21.9865 3.53853 21.2901 3.53853 19.896C3.57683 18.9192 3.84785 17.9674 4.32742 17.1256L4.31239 17.1531C4.8298 16.1444 5.47987 15.2151 6.24394 14.3918L6.2404 14.3955C6.98722 13.587 7.84129 12.8927 8.77689 12.3337L8.83173 12.3035C9.63079 11.7867 10.5464 11.4956 11.4876 11.4592H11.4982L11.5018 11.461ZM14.805 8.43845H14.7644C14.2428 8.43903 13.7396 8.23913 13.352 7.8774L13.3537 7.87923C12.964 7.52756 12.667 7.07897 12.4905 6.57561L12.4835 6.5536C12.308 6.04088 12.2191 5.50064 12.2208 4.95662V4.92637V4.9282C12.2287 4.14438 12.38 3.39997 12.6497 2.71791L12.6356 2.75825C12.9096 2.02405 13.3408 1.36391 13.8967 0.827563L13.9003 0.824813C14.4076 0.30089 15.0936 0.005137 15.8097 0.00156858H15.8513C16.3943 0.00156858 16.8896 0.214255 17.2637 0.562622L17.2619 0.560788C17.6493 0.911905 17.9482 1.35745 18.1251 1.86441L18.1322 1.88641C18.3011 2.36496 18.3984 2.91776 18.3984 3.49348V3.51182C18.3907 4.26761 18.2452 5.01415 17.9695 5.71386L17.9836 5.67352C17.7093 6.41172 17.2748 7.07455 16.7136 7.61062L16.7101 7.61429C16.202 8.13687 15.5163 8.43183 14.8006 8.4357L14.805 8.43845ZM20.7748 6.94964L20.8562 6.94781C21.5027 6.94781 22.0731 7.28334 22.4145 7.7958L22.4189 7.80222C22.7989 8.36646 23.0018 9.03839 23 9.72649L22.9991 9.80533V9.80166C22.9817 10.5798 22.8066 11.3454 22.4853 12.0488C22.164 12.7523 21.7035 13.3778 21.1339 13.8849L21.1268 13.8913C20.5912 14.3949 19.8962 14.6777 19.1731 14.6861H19.1714C18.852 14.701 18.5342 14.6319 18.2475 14.4852C17.9608 14.3386 17.7146 14.1191 17.5317 13.8473L17.5273 13.8409C17.1322 13.2578 16.9287 12.5583 16.9471 11.846V11.8497C16.964 11.0688 17.1388 10.3003 17.46 9.59386C17.7813 8.88737 18.242 8.25859 18.8123 7.74813L18.8194 7.74172C19.3544 7.23968 20.0479 6.95766 20.7695 6.94873H20.7713L20.7748 6.94964Z" fill="#625E5E"/>
</svg>
